<svg width="143" height="149" viewBox="0 0 143 149" fill="none" xmlns="http://www.w3.org/2000/svg">
<path d="M143 37H88V75H143V37Z" fill="#21A365"/>
<path d="M143 74H88V112H143V74Z" fill="#107C41"/>
<path d="M88 37H33V75H88V37Z" fill="#107C41"/>
<path d="M87.944 111.563V74H33V111.563V116.983V141.689C33 145.723 35.9095 149 39.4903 149H136.51C140.091 149 143 145.723 143 141.689V111.563H87.944Z" fill="#185B37"/>
<path d="M136.431 0H88V37H143V7.20134C142.889 3.22819 139.994 0 136.431 0Z" fill="#33C481"/>
<path d="M87.888 0H39.4969C35.9124 0 33 3.23906 33 7.22559V37H88V0H87.888Z" fill="#21A365"/>
<path d="M65.8997 115H7.1003C3.21733 115 0 111.386 0 107.025V41.9754C0 37.6138 3.21733 34 7.1003 34H65.8997C69.7827 34 73 37.6138 73 41.9754V107.025C73 111.386 69.8936 115 65.8997 115Z" fill="#17864C"/>
<path d="M45.1697 97.5388L40.8092 88.6489C39.0203 85.143 37.9023 82.764 36.6724 80.1346H36.5606C35.5543 82.764 34.5481 85.143 32.871 88.6489L28.9578 97.5388H20.4605L32.5356 74.8758L20.7959 52.5884H29.405L33.7654 61.8539C35.1071 64.6085 36.1134 66.8623 37.1196 69.3665H37.3432C38.4613 66.6119 39.2439 64.6085 40.5856 61.8539L44.946 52.5884H53.4433L41.4801 74.5001L53.8905 97.5388H45.1697Z" fill="white"/>
<path opacity="0.2" d="M75.009 41C75.009 41.2496 75.009 41.4992 75.009 41.7488V106.898C75.009 111.267 71.7328 114.886 67.7788 114.886H34V122H73.7663C77.7204 122 80.9966 118.381 80.9966 114.012V48.8629C81.1096 44.869 78.3982 41.4992 75.009 41Z" fill="black"/>
</svg>
