<svg width="148" height="155" viewBox="0 0 148 155" fill="none" xmlns="http://www.w3.org/2000/svg">
<path d="M3 51.5V128.5H17H100C140.5 128.5 145.5 51.5 100 51.5H17H3Z" fill="#C80000"/>
<path d="M145.5 31.5V142C145.5 147.523 141.023 152 135.5 152H27C21.4772 152 17 147.523 17 142V128.5M145.5 31.5L116.5 3M145.5 31.5C145.5 31.5 127 34 121.5 28C116 22 116.5 3 116.5 3M116.5 3H27C21.4772 3 17 7.47715 17 13V51.5M3 51.5V128.5M3 51.5C8.46734 51.5 11.5327 51.5 17 51.5M3 51.5H17M3 128.5C3 128.5 8.73512 128.5 17 128.5M3 128.5H17M100 128.5C140.5 128.5 145.5 51.5 100 51.5M100 128.5C59.5 128.5 33.3813 128.5 17 128.5M100 128.5H17M100 51.5C100 51.5 49.4135 51.5 17 51.5M100 51.5H17" stroke="#C80000" stroke-width="5"/>
<path d="M21.0341 106V71.0909H34.8068C37.4545 71.0909 39.7102 71.5966 41.5739 72.608C43.4375 73.608 44.858 75 45.8352 76.7841C46.8239 78.5568 47.3182 80.6023 47.3182 82.9205C47.3182 85.2386 46.8182 87.2841 45.8182 89.0568C44.8182 90.8295 43.3693 92.2102 41.4716 93.1989C39.5852 94.1875 37.3011 94.6818 34.6193 94.6818H25.8409V88.767H33.4261C34.8466 88.767 36.017 88.5227 36.9375 88.0341C37.8693 87.5341 38.5625 86.8466 39.017 85.9716C39.483 85.0852 39.7159 84.0682 39.7159 82.9205C39.7159 81.7614 39.483 80.75 39.017 79.8864C38.5625 79.0114 37.8693 78.3352 36.9375 77.858C36.0057 77.3693 34.8239 77.125 33.392 77.125H28.4148V106H21.0341ZM64.4872 106H52.1122V71.0909H64.5895C68.1009 71.0909 71.1236 71.7898 73.6577 73.1875C76.1918 74.5739 78.1406 76.5682 79.5043 79.1705C80.8793 81.7727 81.5668 84.8864 81.5668 88.5114C81.5668 92.1477 80.8793 95.2727 79.5043 97.8864C78.1406 100.5 76.1804 102.506 73.6236 103.903C71.0781 105.301 68.0327 106 64.4872 106ZM59.4929 99.6761H64.1804C66.3622 99.6761 68.1974 99.2898 69.6861 98.517C71.1861 97.733 72.3111 96.5227 73.0611 94.8864C73.8224 93.2386 74.2031 91.1136 74.2031 88.5114C74.2031 85.9318 73.8224 83.8239 73.0611 82.1875C72.3111 80.5511 71.1918 79.3466 69.7031 78.5739C68.2145 77.8011 66.3793 77.4148 64.1974 77.4148H59.4929V99.6761ZM87.0341 106V71.0909H110.148V77.1761H94.4148V85.4943H108.614V91.5795H94.4148V106H87.0341Z" fill="white"/>
</svg>
