<svg width="143" height="149" viewBox="0 0 143 149" fill="none" xmlns="http://www.w3.org/2000/svg">
<path d="M143 37H33V7.22559C33 3.23906 35.9065 0 39.4837 0H136.404C139.982 0 142.888 3.23906 142.888 7.22559V37H143Z" fill="#41A5ED"/>
<path d="M143 37H33V75H143V37Z" fill="#2C7BD5"/>
<path d="M143 74H33V112H143V74Z" fill="#195ABE"/>
<path d="M136.51 149H39.4903C35.9095 149 33 145.761 33 141.774V112H143V141.774C143 145.761 140.091 149 136.51 149Z" fill="#103E91"/>
<path d="M66.8024 115H7.19757C3.2614 115 0 111.386 0 107.025V41.9754C0 37.6138 3.2614 34 7.19757 34H66.8024C70.7386 34 74 37.6138 74 41.9754V107.025C74 111.386 70.8511 115 66.8024 115Z" fill="#2166C3"/>
<path d="M21.4667 97.5388L11.516 52.5884H19.4542L23.3674 72.9976C24.3737 78.5069 25.3799 84.1413 26.0508 88.6489H26.1626C26.8334 83.8909 27.9515 78.6321 29.0696 72.8724L33.43 52.5884H41.2564L45.2814 73.248C46.2877 78.6321 47.1821 83.5153 47.7412 88.3985H47.853C48.5238 83.3901 49.5301 78.3817 50.6481 72.8724L54.8968 52.5884H62.4996L51.5426 97.5388H43.4925L39.2439 76.3783C38.2377 71.3699 37.455 67.1127 36.896 62.2296H36.7842C36.1133 66.9875 35.3307 71.3699 34.1008 76.5035L29.405 97.664H21.4667V97.5388Z" fill="white"/>
<path opacity="0.2" d="M73.899 41C73.899 41.2496 73.899 41.4992 73.899 41.7488V106.898C73.899 111.267 70.6226 114.886 66.6683 114.886H33V122H72.7692C76.7236 122 80 118.381 80 114.012V48.8629C80 44.869 77.4014 41.4992 73.899 41Z" fill="black"/>
</svg>
