<svg width="36" height="36" viewBox="0 0 36 36" fill="none" xmlns="http://www.w3.org/2000/svg">
<circle cx="18" cy="18" r="18" fill="#8090BE" fill-opacity="0.764706"/>
<circle cx="18" cy="18" r="17.5" stroke="#8090BE" stroke-opacity="0.764706"/>
<path d="M25 10H24V8.5C24 8.22386 23.7761 8 23.5 8H22.5C22.2239 8 22 8.22386 22 8.5V10H14V8.5C14 8.22386 13.7761 8 13.5 8H12.5C12.2239 8 12 8.22386 12 8.5V10H11C9.89543 10 9 10.8954 9 12V25C9 26.1046 9.89543 27 11 27H25C26.1046 27 27 26.1046 27 25V12C27 10.8954 26.1046 10 25 10ZM25 25H11V14H25V25ZM17.5 18H18.5C18.7761 18 19 17.7761 19 17.5V16.5C19 16.2239 18.7761 16 18.5 16H17.5C17.2239 16 17 16.2239 17 16.5V17.5C17 17.7761 17.2239 18 17.5 18ZM21.5 18H22.5C22.7761 18 23 17.7761 23 17.5V16.5C23 16.2239 22.7761 16 22.5 16H21.5C21.2239 16 21 16.2239 21 16.5V17.5C21 17.7761 21.2239 18 21.5 18ZM13.5 18H14.5C14.7761 18 15 17.7761 15 17.5V16.5C15 16.2239 14.7761 16 14.5 16H13.5C13.2239 16 13 16.2239 13 16.5V17.5C13 17.7761 13.2239 18 13.5 18ZM17.5 22H18.5C18.7761 22 19 21.7761 19 21.5V20.5C19 20.2239 18.7761 20 18.5 20H17.5C17.2239 20 17 20.2239 17 20.5V21.5C17 21.7761 17.2239 22 17.5 22ZM13.5 22H14.5C14.7761 22 15 21.7761 15 21.5V20.5C15 20.2239 14.7761 20 14.5 20H13.5C13.2239 20 13 20.2239 13 20.5V21.5C13 21.7761 13.2239 22 13.5 22Z" fill="white"/>
</svg>
