<svg width="36" height="36" viewBox="0 0 36 36" fill="none" xmlns="http://www.w3.org/2000/svg">
<circle cx="18" cy="18" r="18" fill="#152C42"/>
<circle cx="18" cy="18" r="17.5" stroke="#8090BE" stroke-opacity="0.764706"/>
<path d="M28.51 18.87L24.91 11.13C24.5763 10.4393 23.8771 10.0004 23.11 10H21.5C21.2239 10 21 10.2239 21 10.5V11.5C21 11.7762 21.2239 12 21.5 12H23.11L25 16.11C22.8787 15.6543 20.7084 16.636 19.65 18.53C19.1641 18.1949 18.5902 18.0105 18 18C17.4013 18.0058 16.8187 18.1942 16.33 18.54C15.2747 16.6529 13.1167 15.669 11 16.11L12.89 12H14.5C14.7762 12 15 11.7762 15 11.5V10.5C15 10.2239 14.7762 10 14.5 10H12.89C12.1112 9.99628 11.401 10.445 11.07 11.15L7.47001 18.89C7.15917 19.5499 6.99865 20.2706 7.00001 21C7.00001 23.7614 9.23858 26 12 26C14.7614 26 17 23.7614 17 21C17 20.4477 17.4477 20 18 20C18.5523 20 19 20.4477 19 21C19 23.7614 21.2386 26 24 26C26.7614 26 29 23.7614 29 21C28.9981 20.2623 28.8306 19.5344 28.51 18.87ZM12 24C10.3432 24 9.00001 22.6569 9.00001 21C9.00001 19.3432 10.3432 18 12 18C13.6569 18 15 19.3432 15 21C15 22.6569 13.6569 24 12 24ZM24 24C22.3432 24 21 22.6569 21 21C21 19.3432 22.3432 18 24 18C25.6569 18 27 19.3432 27 21C27 22.6569 25.6569 24 24 24Z" fill="white"/>
</svg>
