<svg width="36" height="36" viewBox="0 0 36 36" fill="none" xmlns="http://www.w3.org/2000/svg">
<circle cx="18" cy="18" r="18" fill="#8090BE" fill-opacity="0.764706"/>
<circle cx="18" cy="18" r="17.5" stroke="#8090BE" stroke-opacity="0.764706"/>
<path d="M10.5 24.0001H25.5C25.7761 24.0001 26 23.7762 26 23.5001V21.5001C26 21.224 25.7761 21.0001 25.5 21.0001H24V14.0001H25.5C25.7761 14.0001 26 13.7762 26 13.5001V11.6701C25.998 11.2664 25.7534 10.9035 25.38 10.7501L19 8.1501C18.7526 8.04845 18.4874 7.99745 18.22 8.0001H17.78C17.5193 8.00009 17.2611 8.05105 17.02 8.1501L10.62 10.7501C10.2466 10.9035 10.002 11.2664 10 11.6701V13.5001C10 13.7762 10.2239 14.0001 10.5 14.0001H12V21.0001H10.5C10.2239 21.0001 10 21.224 10 21.5001V23.5001C10 23.7762 10.2239 24.0001 10.5 24.0001ZM19 14.0001H22V21.0001H19V14.0001ZM14 14.0001H17V21.0001H14V14.0001ZM26.5 26.0001H9.5C9.22386 26.0001 9 26.224 9 26.5001V27.5001C9 27.7762 9.22386 28.0001 9.5 28.0001H26.5C26.7761 28.0001 27 27.7762 27 27.5001V26.5001C27 26.224 26.7761 26.0001 26.5 26.0001Z" fill="white"/>
</svg>
