<svg width="36" height="36" viewBox="0 0 36 36" fill="none" xmlns="http://www.w3.org/2000/svg">
<circle cx="18" cy="18" r="18" fill="#152C42"/>
<circle cx="18" cy="18" r="17.5" stroke="#8090BE" stroke-opacity="0.764706"/>
<path d="M13.9985 14C13.9985 11.7909 15.79 10 18 10C20.21 10 22.0015 11.7909 22.0015 14C22.0015 16.2091 20.21 18 18 18C16.9387 18 15.9209 17.5786 15.1705 16.8284C14.4201 16.0783 13.9985 15.0609 13.9985 14ZM25.893 24.55L24.4524 21.66C23.9435 20.6408 22.901 19.9978 21.7614 20H14.2386C13.099 19.9978 12.0565 20.6408 11.5476 21.66L10.107 24.55C9.95099 24.8595 9.96642 25.2277 10.1478 25.5231C10.3292 25.8185 10.6506 25.999 10.9974 26H25.0026C25.3494 25.999 25.6708 25.8185 25.8522 25.5231C26.0336 25.2277 26.049 24.8595 25.893 24.55Z" fill="white"/>
</svg>
