<svg width="319" height="304" viewBox="0 0 319 304" fill="none" xmlns="http://www.w3.org/2000/svg">
<path d="M317.832 121.93C319.417 114.004 313.077 104.493 305.151 104.493L214.797 91.8122L173.583 9.3845C171.998 6.2142 170.413 4.62905 167.243 3.0439C159.317 -1.71155 149.806 1.45875 145.051 9.3845L105.422 91.8122L15.0686 104.493C10.3131 104.493 7.14284 106.079 5.55769 109.249C-0.782903 115.589 -0.782903 125.1 5.55769 131.441L70.5488 194.847L54.6973 285.2C54.6973 288.371 54.6973 291.541 56.2825 294.711C61.0379 302.637 70.5488 305.807 78.4746 301.052L159.317 258.253L240.16 301.052C241.745 302.637 244.915 302.637 248.086 302.637H251.256C259.182 301.052 265.522 293.126 263.937 283.615L248.086 193.262L313.077 129.856C316.247 128.271 317.832 125.1 317.832 121.93Z" fill="#325572"/>
</svg>
