<svg width="25" height="25" viewBox="0 0 25 25" fill="none" xmlns="http://www.w3.org/2000/svg">
<path d="M21.25 25C21.5815 25 21.8995 24.8537 22.1339 24.5932C22.3683 24.3327 22.5 23.9795 22.5 23.6111V13.8889H24.375C24.5408 13.8889 24.6997 13.8157 24.8169 13.6855C24.9342 13.5553 25 13.3786 25 13.1944V11.6806C24.9986 11.3162 24.8684 10.967 24.6375 10.7083L15.3625 0.402778C15.1297 0.146189 14.8154 0.0015342 14.4875 0H10.5125C10.1846 0.0015342 9.87033 0.146189 9.6375 0.402778L0.3625 10.7083C0.13157 10.967 0.00138078 11.3162 0 11.6806V13.1944C0 13.3786 0.0658481 13.5553 0.183058 13.6855C0.300269 13.8157 0.45924 13.8889 0.625 13.8889H2.5V23.6111C2.5 23.9795 2.6317 24.3327 2.86612 24.5932C3.10054 24.8537 3.41848 25 3.75 25H21.25Z" fill="white"/>
<path d="M14.6701 15.9247C14.9062 14.8071 15.7634 13.7381 15.7634 13.7381C14.5159 12.0646 12.4997 11.9229 12.4997 11.9229C12.4997 11.9229 10.4831 12.0643 9.23608 13.7381C9.23608 13.7381 9.94111 14.504 10.2482 15.4928L12.1075 16.304L12.503 13.0995L12.6277 16.8403H11.9517L11.0727 16.345L10.3297 15.9261L10.1009 15.7971L6.59192 13.7755L8.36317 19.6796L11.9521 22H12.8274L13.0215 18.1675L13.2637 21.8495L16.6371 19.6796L18.4083 13.7755L14.6701 15.9247ZM11.9517 21.3161L9.41688 19.6825L11.7277 20.7109L11.9517 17.3204V21.3161ZM13.3771 14.0743C13.1704 14.0743 13.003 13.8266 13.003 13.5213C13.003 13.2159 13.1704 12.9683 13.3771 12.9683C13.5837 12.9683 13.7512 13.2159 13.7512 13.5213C13.7512 13.827 13.5837 14.0743 13.3771 14.0743ZM14.4695 14.2538C14.338 14.2538 14.2314 14.0986 14.2314 13.9075C14.2314 13.7164 14.338 13.5612 14.4695 13.5612C14.6011 13.5612 14.7076 13.7164 14.7076 13.9075C14.7076 14.0986 14.6011 14.2538 14.4695 14.2538Z" fill="#1B386B"/>
<path d="M10.2276 11.0492C10.5562 10.9807 11.4428 10.8269 12.4356 10.9154C12.4356 10.9154 11.2563 10.9756 10.3786 11.3901L10.3104 12.3162C11.5178 11.4978 12.5001 11.4227 12.5001 11.4227C12.5001 11.4227 13.5466 11.5347 14.6899 12.3162L14.6164 11.3172C14.6164 11.3172 14.9187 10.7268 15.1984 10.5702C15.1984 10.5702 14.6108 10.3403 13.6418 10.2213C13.6281 10.1673 13.5954 10.0107 13.6346 9.86743C13.6689 9.7416 13.5837 9.61614 13.4408 9.59945C13.2157 9.57335 12.9154 9.54506 12.6236 9.53817V9.02761H13.6475V8.30273H12.6236H12.5001H12.3766V9.53781C12.0812 9.54434 11.783 9.57226 11.5594 9.59837C11.4162 9.61505 11.331 9.74124 11.3653 9.86707C11.377 9.90949 11.3823 9.94902 11.3839 9.98673L12.4997 10.1514C10.8677 10.1514 9.80148 10.5698 9.80148 10.5698C9.95484 10.6558 10.1142 10.8715 10.2276 11.0492Z" fill="#1B386B"/>
<path d="M20.814 12.1955C20.5694 11.9671 20.1626 11.949 19.8818 12.1502C19.8467 12.1752 19.7946 12.1934 19.7506 12.1937C19.3878 12.1963 19.025 12.1945 18.6622 12.193C18.6311 12.193 18.6004 12.1883 18.5633 12.1854C18.4491 11.0192 17.9677 9.99265 17.1375 9.09227C17.4394 8.82248 17.7332 8.55849 18.0302 8.29741C18.0568 8.2742 18.1037 8.26441 18.1428 8.25897C18.3866 8.22525 18.5738 8.11501 18.6775 7.91521C18.8055 7.66936 18.7736 7.43293 18.5682 7.22769C18.3841 7.0442 18.1505 6.98256 17.8881 7.05001C17.5903 7.12652 17.4285 7.31544 17.3849 7.58958C17.3801 7.61895 17.3712 7.65449 17.3498 7.67407C17.058 7.94422 16.7638 8.21219 16.4664 8.48379C15.449 7.70997 14.2904 7.27265 12.9812 7.16568C12.9772 7.14211 12.9735 7.13014 12.9735 7.11781C12.9723 6.77913 12.9703 6.44044 12.9731 6.10176C12.9735 6.0684 12.9969 6.03069 13.0211 6.00277C13.1632 5.83886 13.2044 5.65465 13.1503 5.45666C13.0813 5.20501 12.8646 5.03929 12.576 5.0052C12.3012 4.97257 12.0308 5.0955 11.8916 5.31561C11.7572 5.52882 11.7842 5.80768 11.9521 6.00349C11.9816 6.03794 12.005 6.08689 12.0058 6.12968C12.0094 6.44625 12.005 6.76281 12.007 7.07901C12.0074 7.14102 11.9904 7.17184 11.9162 7.17475C11.8391 7.17801 11.7624 7.19143 11.6857 7.20013C10.6998 7.31508 9.80351 7.63527 8.99154 8.14837C8.83455 8.24773 8.68361 8.35507 8.51613 8.46784C8.24494 8.21945 7.97737 7.97214 7.70618 7.72846C7.64806 7.67625 7.6178 7.62222 7.6073 7.54824C7.55807 7.20194 7.14684 6.95282 6.77555 7.03985C6.45311 7.11528 6.23316 7.3818 6.25374 7.67262C6.27594 7.98447 6.51889 8.21618 6.86151 8.26042C6.91196 8.26695 6.96725 8.2927 7.00478 8.32424C7.14845 8.44572 7.28607 8.573 7.42489 8.69846C7.56533 8.82574 7.70497 8.95375 7.84622 9.08248C7.00478 9.98721 6.52615 11.0185 6.41033 12.1796C6.38975 12.1858 6.38006 12.1912 6.37037 12.1916C5.98658 12.1934 5.60239 12.1959 5.2186 12.1941C5.1851 12.1941 5.14717 12.1716 5.11932 12.1509C4.84086 11.9453 4.43245 11.9678 4.18103 12.2039C3.94292 12.4276 3.93929 12.8047 4.17255 13.0346C4.42155 13.2798 4.8227 13.311 5.10923 13.1122C5.14959 13.0843 5.20891 13.0662 5.26016 13.0647C5.46437 13.0597 5.66857 13.0633 5.87318 13.0637C6.04873 13.064 6.22388 13.0637 6.40912 13.0637C6.41396 13.1119 6.42042 13.1597 6.42647 13.2076L7.84864 13.9474C7.72918 13.6079 7.65412 13.25 7.62627 12.8733C7.67672 12.8711 7.71425 12.8682 7.75218 12.8682C8.19813 12.8686 8.64366 12.8682 9.0896 12.8682C9.26394 12.7094 9.47057 12.5462 9.71271 12.3961L9.71392 12.3798C9.02665 12.3798 8.33049 12.3798 7.62668 12.3798C7.70174 11.3557 8.12024 10.472 8.86764 9.70835C9.0662 9.8864 9.26192 10.0623 9.45886 10.2392C9.62352 10.1627 9.80956 10.0833 10.0029 10.0111C9.75871 9.79176 9.51536 9.5731 9.26919 9.35118C10.0477 8.7456 10.9367 8.39024 11.9501 8.28544V7.93552H14.0373V8.48561C14.6487 8.67018 15.2077 8.961 15.7153 9.36024C15.4728 9.57817 15.2327 9.79357 14.9922 10.0097C15.1879 10.0822 15.3759 10.1627 15.5426 10.2403C15.7323 10.0702 15.9212 9.90018 16.1108 9.72975C16.7997 10.3611 17.3159 11.4442 17.3389 12.3816C17.3022 12.383 17.265 12.3859 17.2279 12.3859C16.581 12.3859 15.9337 12.3863 15.2868 12.3866L15.2876 12.3961C15.5301 12.5466 15.7371 12.7097 15.9115 12.8686C16.1161 12.8686 16.3207 12.8686 16.5257 12.8686C16.7582 12.8686 16.9902 12.8678 17.2227 12.8675C17.2606 12.8675 17.2981 12.8675 17.3494 12.8675C17.3207 13.2526 17.2437 13.6174 17.1185 13.9644L18.546 13.2218C18.5524 13.171 18.5593 13.1202 18.5641 13.0691C18.6089 13.0673 18.6469 13.064 18.6848 13.064C19.0298 13.0629 19.3753 13.0597 19.7203 13.064C19.7813 13.0647 19.8515 13.085 19.9007 13.1173C20.1933 13.3062 20.5933 13.2736 20.8301 13.0354C21.0626 12.8011 21.0557 12.4215 20.814 12.1955Z" fill="#1B386B"/>
</svg>
