<svg width="18" height="18" viewBox="0 0 18 18" fill="none" xmlns="http://www.w3.org/2000/svg">
<g clip-path="url(#clip0_352_6)">
<path d="M10.8976 7.1025L7.10262 10.8975C6.59937 10.3942 6.31665 9.7117 6.31665 9C6.31665 8.6476 6.38606 8.29865 6.52092 7.97308C6.65577 7.6475 6.85344 7.35168 7.10262 7.1025C7.3518 6.85332 7.64763 6.65565 7.9732 6.5208C8.29877 6.38594 8.64772 6.31653 9.00012 6.31653C9.71182 6.31653 10.3944 6.59925 10.8976 7.1025V7.1025Z" stroke="current" stroke-width="1.5" stroke-linecap="round" stroke-linejoin="round"/>
<path d="M13.3649 4.32749C12.0524 3.33749 10.5524 2.79749 8.99988 2.79749C6.35238 2.79749 3.88488 4.35749 2.16738 7.05749C1.49238 8.11499 1.49238 9.89249 2.16738 10.95C2.75988 11.88 3.44988 12.6825 4.19988 13.3275M6.31488 14.6475C7.16988 15.0075 8.07738 15.2025 8.99988 15.2025C11.6474 15.2025 14.1149 13.6425 15.8324 10.9425C16.5074 9.88499 16.5074 8.10749 15.8324 7.04999C15.5849 6.65999 15.3149 6.29249 15.0374 5.94749" stroke="current" stroke-width="1.5" stroke-linecap="round" stroke-linejoin="round"/>
<path d="M11.6325 9.525C11.5309 10.0482 11.2753 10.5291 10.8984 10.9059C10.5216 11.2828 10.0407 11.5384 9.5175 11.64M7.1025 10.8975L1.5 16.5M16.5 1.5L10.8975 7.1025" stroke="current" stroke-width="1.5" stroke-linecap="round" stroke-linejoin="round"/>
</g>
<defs>
<clipPath id="clip0_352_6">
<rect width="18" height="18" fill="white"/>
</clipPath>
</defs>
</svg>
