<svg width="536" height="285" viewBox="0 0 536 285" fill="none" xmlns="http://www.w3.org/2000/svg">
<path d="M97.4 180C95.4 180 94.4 178.333 94.4 175V173.3C94.4 169.967 95.4 168.3 97.4 168.3H110.7V123.4L97.1 125.4C96.2333 125.4 95.5667 124.9 95.1 123.9C94.6333 122.9 94.3 121.733 94.1 120.4C93.9667 119.067 93.9 117.933 93.9 117C93.9 115.467 94.7667 114.533 96.5 114.2L121.4 109.6C122.2 109.6 123.067 109.867 124 110.4C125 110.867 125.5 111.4 125.5 112V168.3H135.2C137.2 168.3 138.2 169.967 138.2 173.3V175C138.2 178.333 137.2 180 135.2 180H97.4ZM169.316 180.8C164.382 180.8 160.149 179.4 156.616 176.6C153.082 173.733 150.349 169.633 148.416 164.3C146.549 158.9 145.616 152.467 145.616 145C145.616 137.467 146.549 131.033 148.416 125.7C150.349 120.367 153.082 116.3 156.616 113.5C160.149 110.633 164.382 109.2 169.316 109.2C174.249 109.2 178.482 110.633 182.016 113.5C185.549 116.3 188.249 120.367 190.116 125.7C192.049 131.033 193.016 137.467 193.016 145C193.016 152.467 192.049 158.9 190.116 164.3C188.249 169.633 185.549 173.733 182.016 176.6C178.482 179.4 174.249 180.8 169.316 180.8ZM169.316 169.1C171.182 169.1 172.749 168.2 174.016 166.4C175.349 164.6 176.349 161.9 177.016 158.3C177.682 154.7 178.016 150.267 178.016 145C178.016 139.667 177.682 135.233 177.016 131.7C176.349 128.1 175.349 125.4 174.016 123.6C172.749 121.8 171.182 120.9 169.316 120.9C167.449 120.9 165.849 121.8 164.516 123.6C163.249 125.4 162.282 128.1 161.616 131.7C160.949 135.233 160.616 139.667 160.616 145C160.616 150.267 160.949 154.7 161.616 158.3C162.282 161.9 163.249 164.6 164.516 166.4C165.849 168.2 167.449 169.1 169.316 169.1ZM222.931 180.8C220.131 180.8 217.331 180.333 214.531 179.4C211.731 178.467 209.165 177 206.831 175C204.565 172.933 202.731 170.233 201.331 166.9C199.998 163.567 199.331 159.5 199.331 154.7C199.331 148.3 200.131 142.733 201.731 138C203.398 133.267 205.531 129.267 208.131 126C210.731 122.667 213.498 119.933 216.431 117.8C219.431 115.6 222.265 113.933 224.931 112.8C227.665 111.6 229.931 110.767 231.731 110.3C233.531 109.833 234.531 109.6 234.731 109.6C235.865 109.6 236.798 110.167 237.531 111.3C238.265 112.367 238.798 113.567 239.131 114.9C239.531 116.233 239.731 117.233 239.731 117.9C239.731 118.567 239.631 119.067 239.431 119.4C239.298 119.667 238.965 119.867 238.431 120C233.565 121.467 229.131 123.9 225.131 127.3C221.198 130.633 218.398 134.767 216.731 139.7C218.665 138.633 220.431 137.967 222.031 137.7C223.698 137.367 225.265 137.2 226.731 137.2C228.598 137.2 230.631 137.567 232.831 138.3C235.098 138.967 237.265 140.1 239.331 141.7C241.398 143.3 243.098 145.467 244.431 148.2C245.765 150.933 246.431 154.333 246.431 158.4C246.431 162.467 245.731 165.933 244.331 168.8C242.998 171.6 241.198 173.9 238.931 175.7C236.665 177.433 234.131 178.733 231.331 179.6C228.531 180.4 225.731 180.8 222.931 180.8ZM223.031 169.1C224.631 169.1 226.065 168.667 227.331 167.8C228.598 166.933 229.598 165.733 230.331 164.2C231.131 162.6 231.531 160.8 231.531 158.8C231.531 156.733 231.165 154.967 230.431 153.5C229.765 152.033 228.731 150.9 227.331 150.1C225.998 149.3 224.365 148.9 222.431 148.9C221.098 148.9 219.765 149.133 218.431 149.6C217.098 150 215.798 150.567 214.531 151.3C214.465 152.033 214.431 152.8 214.431 153.6C214.431 154.333 214.431 155.1 214.431 155.9C214.431 159.167 214.798 161.767 215.531 163.7C216.331 165.633 217.398 167.033 218.731 167.9C220.065 168.7 221.498 169.1 223.031 169.1ZM347.37 144.2C347.37 149.733 346.67 154.767 345.27 159.3C343.937 163.767 341.87 167.633 339.07 170.9C336.337 174.167 332.804 176.667 328.47 178.4C324.204 180.133 319.17 181 313.37 181C307.57 181 302.504 180.133 298.17 178.4C293.904 176.6 290.37 174.1 287.57 170.9C284.837 167.633 282.77 163.733 281.37 159.2C280.037 154.667 279.37 149.633 279.37 144.1C279.37 136.7 280.57 130.267 282.97 124.8C285.437 119.333 289.17 115.1 294.17 112.1C299.237 109.033 305.67 107.5 313.47 107.5C321.204 107.5 327.57 109.033 332.57 112.1C337.57 115.1 341.27 119.367 343.67 124.9C346.137 130.367 347.37 136.8 347.37 144.2ZM295.27 144.2C295.27 149.2 295.904 153.5 297.17 157.1C298.437 160.7 300.404 163.467 303.07 165.4C305.737 167.333 309.17 168.3 313.37 168.3C317.704 168.3 321.17 167.333 323.77 165.4C326.437 163.467 328.37 160.7 329.57 157.1C330.837 153.5 331.47 149.2 331.47 144.2C331.47 136.667 330.07 130.767 327.27 126.5C324.47 122.233 319.87 120.1 313.47 120.1C309.204 120.1 305.737 121.067 303.07 123C300.404 124.933 298.437 127.7 297.17 131.3C295.904 134.9 295.27 139.2 295.27 144.2ZM362.16 180V108.6H418.66V180H403.56V121.2H377.26V180H362.16Z" fill="white"/>
<path d="M267.777 284.173C209.065 284.173 150.353 282.854 89.5631 280.222C43.7606 278.24 6.81382 251.522 3.60949 218.066C-1.20162 167.649 -1.20162 116.521 3.60025 66.1103C6.81382 32.6543 43.7606 5.93007 89.5631 3.94774C211.152 -1.31591 324.421 -1.31591 445.992 3.94774C491.794 5.93007 528.741 32.6475 531.945 66.1035C536.756 116.521 536.756 167.649 531.954 218.059C528.741 251.515 491.794 278.24 445.992 280.222C385.202 282.854 326.489 284.173 267.777 284.173ZM444.911 266.718C481.47 265.135 510.965 243.809 513.532 217.119C518.287 167.338 518.287 116.846 513.522 67.0507C510.974 40.3671 481.47 19.0419 444.911 17.4587C324.052 12.2289 211.512 12.2289 90.6527 17.4587C54.0938 19.0419 24.5992 40.3671 22.0321 67.0575C17.2764 116.839 17.2764 167.331 22.0413 217.126C24.59 243.809 54.0938 265.135 90.6527 266.718C211.503 271.948 324.052 271.948 444.911 266.718Z" fill="url(#paint0_linear_1010_321)"/>
<defs>
<linearGradient id="paint0_linear_1010_321" x1="267.777" y1="-6.75548" x2="267.777" y2="296.013" gradientUnits="userSpaceOnUse">
<stop offset="0.9999" stop-color="white"/>
<stop offset="1" stop-color="#0032E3"/>
</linearGradient>
</defs>
</svg>
