<svg width="536" height="285" viewBox="0 0 536 285" fill="none" xmlns="http://www.w3.org/2000/svg">
<path d="M97.4 180C95.4 180 94.4 178.333 94.4 175V173.3C94.4 169.967 95.4 168.3 97.4 168.3H110.7V123.4L97.1 125.4C96.2333 125.4 95.5667 124.9 95.1 123.9C94.6333 122.9 94.3 121.733 94.1 120.4C93.9667 119.067 93.9 117.933 93.9 117C93.9 115.467 94.7667 114.533 96.5 114.2L121.4 109.6C122.2 109.6 123.067 109.867 124 110.4C125 110.867 125.5 111.4 125.5 112V168.3H135.2C137.2 168.3 138.2 169.967 138.2 173.3V175C138.2 178.333 137.2 180 135.2 180H97.4ZM167.816 180.8C165.949 180.8 163.782 180.667 161.316 180.4C158.849 180.133 156.449 179.7 154.116 179.1C151.849 178.433 149.949 177.567 148.416 176.5C146.882 175.433 146.116 174.133 146.116 172.6C146.116 171.933 146.349 171 146.816 169.8C147.349 168.6 147.982 167.5 148.716 166.5C149.516 165.5 150.282 165 151.016 165C151.616 165 152.516 165.333 153.716 166C154.982 166.667 156.582 167.367 158.516 168.1C160.516 168.767 162.849 169.1 165.516 169.1C167.516 169.1 169.249 168.733 170.716 168C172.182 167.2 173.316 166.1 174.116 164.7C174.982 163.233 175.416 161.467 175.416 159.4C175.416 156.067 174.516 153.533 172.716 151.8C170.916 150.067 167.916 149.2 163.716 149.2H160.916C158.916 149.2 157.916 147.533 157.916 144.2V142.4C157.916 139.067 158.916 137.4 160.916 137.4H162.816C165.016 137.4 166.882 137.067 168.416 136.4C169.949 135.667 171.116 134.7 171.916 133.5C172.716 132.233 173.116 130.767 173.116 129.1C173.116 127.433 172.816 126 172.216 124.8C171.616 123.6 170.716 122.667 169.516 122C168.316 121.333 166.816 121 165.016 121C162.482 121 160.449 121.267 158.916 121.8C157.449 122.267 156.282 122.767 155.416 123.3C154.549 123.833 153.816 124.1 153.216 124.1C152.549 124.1 151.816 123.667 151.016 122.8C150.282 121.867 149.616 120.8 149.016 119.6C148.482 118.4 148.216 117.367 148.216 116.5C148.216 115.233 148.749 114.167 149.816 113.3C150.882 112.367 152.316 111.6 154.116 111C155.982 110.4 158.082 109.967 160.416 109.7C162.749 109.367 165.149 109.2 167.616 109.2C173.882 109.2 178.849 110.8 182.516 114C186.249 117.133 188.116 121.367 188.116 126.7C188.116 130.167 187.282 133.167 185.616 135.7C183.949 138.233 181.682 140.1 178.816 141.3V141.7C181.482 142.7 183.649 144.1 185.316 145.9C187.049 147.633 188.316 149.667 189.116 152C189.982 154.333 190.416 156.867 190.416 159.6C190.416 162.933 189.849 165.9 188.716 168.5C187.649 171.1 186.116 173.333 184.116 175.2C182.116 177 179.716 178.4 176.916 179.4C174.182 180.333 171.149 180.8 167.816 180.8ZM221.331 180.8C219.465 180.8 217.298 180.667 214.831 180.4C212.365 180.133 209.965 179.7 207.631 179.1C205.365 178.433 203.465 177.567 201.931 176.5C200.398 175.433 199.631 174.133 199.631 172.6C199.631 171.933 199.865 171 200.331 169.8C200.865 168.6 201.498 167.5 202.231 166.5C203.031 165.5 203.798 165 204.531 165C205.131 165 206.031 165.333 207.231 166C208.498 166.667 210.098 167.367 212.031 168.1C214.031 168.767 216.365 169.1 219.031 169.1C221.031 169.1 222.765 168.733 224.231 168C225.698 167.2 226.831 166.1 227.631 164.7C228.498 163.233 228.931 161.467 228.931 159.4C228.931 156.067 228.031 153.533 226.231 151.8C224.431 150.067 221.431 149.2 217.231 149.2H214.431C212.431 149.2 211.431 147.533 211.431 144.2V142.4C211.431 139.067 212.431 137.4 214.431 137.4H216.331C218.531 137.4 220.398 137.067 221.931 136.4C223.465 135.667 224.631 134.7 225.431 133.5C226.231 132.233 226.631 130.767 226.631 129.1C226.631 127.433 226.331 126 225.731 124.8C225.131 123.6 224.231 122.667 223.031 122C221.831 121.333 220.331 121 218.531 121C215.998 121 213.965 121.267 212.431 121.8C210.965 122.267 209.798 122.767 208.931 123.3C208.065 123.833 207.331 124.1 206.731 124.1C206.065 124.1 205.331 123.667 204.531 122.8C203.798 121.867 203.131 120.8 202.531 119.6C201.998 118.4 201.731 117.367 201.731 116.5C201.731 115.233 202.265 114.167 203.331 113.3C204.398 112.367 205.831 111.6 207.631 111C209.498 110.4 211.598 109.967 213.931 109.7C216.265 109.367 218.665 109.2 221.131 109.2C227.398 109.2 232.365 110.8 236.031 114C239.765 117.133 241.631 121.367 241.631 126.7C241.631 130.167 240.798 133.167 239.131 135.7C237.465 138.233 235.198 140.1 232.331 141.3V141.7C234.998 142.7 237.165 144.1 238.831 145.9C240.565 147.633 241.831 149.667 242.631 152C243.498 154.333 243.931 156.867 243.931 159.6C243.931 162.933 243.365 165.9 242.231 168.5C241.165 171.1 239.631 173.333 237.631 175.2C235.631 177 233.231 178.4 230.431 179.4C227.698 180.333 224.665 180.8 221.331 180.8ZM300.57 120.2C297.37 120.2 294.204 120.667 291.07 121.6C287.937 122.467 284.87 123.533 281.87 124.8L277.07 112.6C280.604 111.067 284.337 109.867 288.27 109C292.204 108.067 296.404 107.6 300.87 107.6C306.137 107.6 310.804 108.433 314.87 110.1C319.004 111.7 322.47 114.1 325.27 117.3C328.137 120.433 330.304 124.3 331.77 128.9C333.304 133.433 334.07 138.6 334.07 144.4C334.07 151.733 332.837 158.167 330.37 163.7C327.904 169.167 324.104 173.433 318.97 176.5C313.904 179.5 307.404 181 299.47 181C295.404 181 291.704 180.7 288.37 180.1C285.104 179.5 281.77 178.567 278.37 177.3V164.6C282.17 165.8 285.67 166.733 288.87 167.4C292.137 168.067 295.37 168.4 298.57 168.4C301.637 168.4 304.337 168.033 306.67 167.3C309.07 166.5 311.07 165.367 312.67 163.9C314.337 162.367 315.637 160.467 316.57 158.2C317.504 155.867 318.037 153.2 318.17 150.2H287.17V137.8H318.07C318.004 135 317.537 132.533 316.67 130.4C315.804 128.2 314.604 126.367 313.07 124.9C311.537 123.367 309.704 122.2 307.57 121.4C305.504 120.6 303.17 120.2 300.57 120.2ZM379.079 180L361.879 124H361.479C361.546 125.333 361.646 127.333 361.779 130C361.912 132.667 362.046 135.533 362.179 138.6C362.312 141.6 362.379 144.333 362.379 146.8V180H348.879V108.6H369.479L386.379 163.2H386.679L404.579 108.6H425.179V180H411.079V146.2C411.079 143.933 411.112 141.333 411.179 138.4C411.312 135.467 411.412 132.7 411.479 130.1C411.612 127.433 411.712 125.433 411.779 124.1H411.379L392.979 180H379.079Z" fill="white"/>
<path d="M267.777 284.173C209.065 284.173 150.353 282.854 89.5631 280.222C43.7606 278.24 6.81382 251.522 3.60949 218.066C-1.20162 167.649 -1.20162 116.521 3.60025 66.1103C6.81382 32.6543 43.7606 5.93007 89.5631 3.94774C211.152 -1.31591 324.421 -1.31591 445.992 3.94774C491.794 5.93007 528.741 32.6475 531.945 66.1035C536.756 116.521 536.756 167.649 531.954 218.059C528.741 251.515 491.794 278.24 445.992 280.222C385.202 282.854 326.489 284.173 267.777 284.173ZM444.911 266.718C481.47 265.135 510.965 243.809 513.532 217.119C518.287 167.338 518.287 116.846 513.522 67.0507C510.974 40.3671 481.47 19.0419 444.911 17.4587C324.052 12.2289 211.512 12.2289 90.6527 17.4587C54.0938 19.0419 24.5992 40.3671 22.0321 67.0575C17.2764 116.839 17.2764 167.331 22.0413 217.126C24.59 243.809 54.0938 265.135 90.6527 266.718C211.503 271.948 324.052 271.948 444.911 266.718Z" fill="url(#paint0_linear_1010_320)"/>
<defs>
<linearGradient id="paint0_linear_1010_320" x1="267.777" y1="-6.75548" x2="267.777" y2="296.013" gradientUnits="userSpaceOnUse">
<stop offset="0.9999" stop-color="white"/>
<stop offset="1" stop-color="#0032E3"/>
</linearGradient>
</defs>
</svg>
