<svg width="536" height="285" viewBox="0 0 536 285" fill="none" xmlns="http://www.w3.org/2000/svg">
<path d="M97.4 180C95.4 180 94.4 178.333 94.4 175V173.3C94.4 169.967 95.4 168.3 97.4 168.3H110.7V123.4L97.1 125.4C96.2333 125.4 95.5667 124.9 95.1 123.9C94.6333 122.9 94.3 121.733 94.1 120.4C93.9667 119.067 93.9 117.933 93.9 117C93.9 115.467 94.7667 114.533 96.5 114.2L121.4 109.6C122.2 109.6 123.067 109.867 124 110.4C125 110.867 125.5 111.4 125.5 112V168.3H135.2C137.2 168.3 138.2 169.967 138.2 173.3V175C138.2 178.333 137.2 180 135.2 180H97.4ZM167.816 180.8C165.949 180.8 163.782 180.667 161.316 180.4C158.849 180.133 156.449 179.7 154.116 179.1C151.849 178.433 149.949 177.567 148.416 176.5C146.882 175.433 146.116 174.133 146.116 172.6C146.116 171.933 146.349 171 146.816 169.8C147.349 168.6 147.982 167.5 148.716 166.5C149.516 165.5 150.282 165 151.016 165C151.616 165 152.516 165.333 153.716 166C154.982 166.667 156.582 167.367 158.516 168.1C160.516 168.767 162.849 169.1 165.516 169.1C167.516 169.1 169.249 168.733 170.716 168C172.182 167.2 173.316 166.1 174.116 164.7C174.982 163.233 175.416 161.467 175.416 159.4C175.416 156.067 174.516 153.533 172.716 151.8C170.916 150.067 167.916 149.2 163.716 149.2H160.916C158.916 149.2 157.916 147.533 157.916 144.2V142.4C157.916 139.067 158.916 137.4 160.916 137.4H162.816C165.016 137.4 166.882 137.067 168.416 136.4C169.949 135.667 171.116 134.7 171.916 133.5C172.716 132.233 173.116 130.767 173.116 129.1C173.116 127.433 172.816 126 172.216 124.8C171.616 123.6 170.716 122.667 169.516 122C168.316 121.333 166.816 121 165.016 121C162.482 121 160.449 121.267 158.916 121.8C157.449 122.267 156.282 122.767 155.416 123.3C154.549 123.833 153.816 124.1 153.216 124.1C152.549 124.1 151.816 123.667 151.016 122.8C150.282 121.867 149.616 120.8 149.016 119.6C148.482 118.4 148.216 117.367 148.216 116.5C148.216 115.233 148.749 114.167 149.816 113.3C150.882 112.367 152.316 111.6 154.116 111C155.982 110.4 158.082 109.967 160.416 109.7C162.749 109.367 165.149 109.2 167.616 109.2C173.882 109.2 178.849 110.8 182.516 114C186.249 117.133 188.116 121.367 188.116 126.7C188.116 130.167 187.282 133.167 185.616 135.7C183.949 138.233 181.682 140.1 178.816 141.3V141.7C181.482 142.7 183.649 144.1 185.316 145.9C187.049 147.633 188.316 149.667 189.116 152C189.982 154.333 190.416 156.867 190.416 159.6C190.416 162.933 189.849 165.9 188.716 168.5C187.649 171.1 186.116 173.333 184.116 175.2C182.116 177 179.716 178.4 176.916 179.4C174.182 180.333 171.149 180.8 167.816 180.8ZM210.431 180.2C206.498 180.2 204.531 179.567 204.531 178.3C204.531 178.033 204.565 177.767 204.631 177.5C204.765 177.167 204.931 176.8 205.131 176.4L229.931 121.7H203.831C201.831 121.7 200.831 120.033 200.831 116.7V115C200.831 111.667 201.831 110 203.831 110H243.431C243.831 110 244.265 110.533 244.731 111.6C245.198 112.667 245.598 113.9 245.931 115.3C246.265 116.7 246.431 117.933 246.431 119C246.431 119.467 246.365 119.9 246.231 120.3L219.931 178.2C219.598 179 218.898 179.533 217.831 179.8C216.831 180.067 215.598 180.2 214.131 180.2H210.431ZM312.87 120.2C310.004 120.2 307.437 120.767 305.17 121.9C302.97 123.033 301.104 124.667 299.57 126.8C298.037 128.867 296.87 131.4 296.07 134.4C295.337 137.4 294.97 140.767 294.97 144.5C294.97 149.567 295.57 153.9 296.77 157.5C298.037 161.033 300.004 163.733 302.67 165.6C305.337 167.467 308.737 168.4 312.87 168.4C315.804 168.4 318.704 168.067 321.57 167.4C324.504 166.733 327.67 165.8 331.07 164.6V177.3C327.937 178.567 324.837 179.5 321.77 180.1C318.704 180.7 315.27 181 311.47 181C304.137 181 298.07 179.5 293.27 176.5C288.537 173.433 285.037 169.167 282.77 163.7C280.504 158.167 279.37 151.733 279.37 144.4C279.37 139 280.104 134.067 281.57 129.6C283.037 125.067 285.17 121.167 287.97 117.9C290.837 114.633 294.337 112.1 298.47 110.3C302.67 108.5 307.47 107.6 312.87 107.6C316.404 107.6 319.937 108.067 323.47 109C327.07 109.867 330.504 111.067 333.77 112.6L328.87 124.9C326.204 123.633 323.504 122.533 320.77 121.6C318.104 120.667 315.47 120.2 312.87 120.2ZM376.442 180L359.242 124H358.842C358.909 125.333 359.009 127.333 359.142 130C359.276 132.667 359.409 135.533 359.542 138.6C359.676 141.6 359.742 144.333 359.742 146.8V180H346.242V108.6H366.842L383.742 163.2H384.042L401.942 108.6H422.542V180H408.442V146.2C408.442 143.933 408.476 141.333 408.542 138.4C408.676 135.467 408.776 132.7 408.842 130.1C408.976 127.433 409.076 125.433 409.142 124.1H408.742L390.342 180H376.442Z" fill="white"/>
<path d="M267.777 284.173C209.065 284.173 150.353 282.854 89.5631 280.222C43.7606 278.24 6.81382 251.522 3.60949 218.066C-1.20162 167.649 -1.20162 116.521 3.60025 66.1103C6.81382 32.6543 43.7606 5.93007 89.5631 3.94774C211.152 -1.31591 324.421 -1.31591 445.992 3.94774C491.794 5.93007 528.741 32.6475 531.945 66.1035C536.756 116.521 536.756 167.649 531.954 218.059C528.741 251.515 491.794 278.24 445.992 280.222C385.202 282.854 326.489 284.173 267.777 284.173ZM444.911 266.718C481.47 265.135 510.965 243.809 513.532 217.119C518.287 167.338 518.287 116.846 513.522 67.0507C510.974 40.3671 481.47 19.0419 444.911 17.4587C324.052 12.2289 211.512 12.2289 90.6527 17.4587C54.0938 19.0419 24.5992 40.3671 22.0321 67.0575C17.2764 116.839 17.2764 167.331 22.0413 217.126C24.59 243.809 54.0938 265.135 90.6527 266.718C211.503 271.948 324.052 271.948 444.911 266.718Z" fill="url(#paint0_linear_1010_318)"/>
<defs>
<linearGradient id="paint0_linear_1010_318" x1="267.777" y1="-6.75548" x2="267.777" y2="296.013" gradientUnits="userSpaceOnUse">
<stop offset="0.9999" stop-color="white"/>
<stop offset="1" stop-color="#0032E3"/>
</linearGradient>
</defs>
</svg>
