<svg width="536" height="285" viewBox="0 0 536 285" fill="none" xmlns="http://www.w3.org/2000/svg">
<path d="M97.4 180C95.4 180 94.4 178.333 94.4 175V173.3C94.4 169.967 95.4 168.3 97.4 168.3H110.7V123.4L97.1 125.4C96.2333 125.4 95.5667 124.9 95.1 123.9C94.6333 122.9 94.3 121.733 94.1 120.4C93.9667 119.067 93.9 117.933 93.9 117C93.9 115.467 94.7667 114.533 96.5 114.2L121.4 109.6C122.2 109.6 123.067 109.867 124 110.4C125 110.867 125.5 111.4 125.5 112V168.3H135.2C137.2 168.3 138.2 169.967 138.2 173.3V175C138.2 178.333 137.2 180 135.2 180H97.4ZM165.916 180.8C162.182 180.8 158.816 180.5 155.816 179.9C152.882 179.233 150.549 178.367 148.816 177.3C147.149 176.167 146.316 174.933 146.316 173.6C146.316 173 146.582 172.067 147.116 170.8C147.716 169.533 148.449 168.367 149.316 167.3C150.182 166.233 150.982 165.7 151.716 165.7C152.116 165.7 152.916 166 154.116 166.6C155.316 167.133 156.882 167.7 158.816 168.3C160.816 168.833 163.149 169.1 165.816 169.1C168.016 169.1 169.916 168.7 171.516 167.9C173.116 167.1 174.349 165.933 175.216 164.4C176.082 162.8 176.516 160.933 176.516 158.8C176.516 155.267 175.582 152.533 173.716 150.6C171.849 148.667 168.616 147.7 164.016 147.7H153.116C151.649 147.7 150.649 147.4 150.116 146.8C149.649 146.133 149.416 145.1 149.416 143.7L151.316 114C151.449 112.6 151.816 111.6 152.416 111C153.016 110.333 154.049 110 155.516 110H185.016C187.016 110 188.016 111.667 188.016 115V117.7C188.016 120.367 187.016 121.7 185.016 121.7H164.816L163.816 136H166.416C170.216 136 173.649 136.367 176.716 137.1C179.782 137.833 182.416 139.067 184.616 140.8C186.816 142.467 188.516 144.733 189.716 147.6C190.916 150.467 191.516 154.067 191.516 158.4C191.516 162.6 190.749 166.167 189.216 169.1C187.749 171.967 185.749 174.267 183.216 176C180.749 177.667 177.982 178.9 174.916 179.7C171.916 180.433 168.916 180.8 165.916 180.8ZM222.931 180.8C220.131 180.8 217.331 180.333 214.531 179.4C211.731 178.467 209.165 177 206.831 175C204.565 172.933 202.731 170.233 201.331 166.9C199.998 163.567 199.331 159.5 199.331 154.7C199.331 148.3 200.131 142.733 201.731 138C203.398 133.267 205.531 129.267 208.131 126C210.731 122.667 213.498 119.933 216.431 117.8C219.431 115.6 222.265 113.933 224.931 112.8C227.665 111.6 229.931 110.767 231.731 110.3C233.531 109.833 234.531 109.6 234.731 109.6C235.865 109.6 236.798 110.167 237.531 111.3C238.265 112.367 238.798 113.567 239.131 114.9C239.531 116.233 239.731 117.233 239.731 117.9C239.731 118.567 239.631 119.067 239.431 119.4C239.298 119.667 238.965 119.867 238.431 120C233.565 121.467 229.131 123.9 225.131 127.3C221.198 130.633 218.398 134.767 216.731 139.7C218.665 138.633 220.431 137.967 222.031 137.7C223.698 137.367 225.265 137.2 226.731 137.2C228.598 137.2 230.631 137.567 232.831 138.3C235.098 138.967 237.265 140.1 239.331 141.7C241.398 143.3 243.098 145.467 244.431 148.2C245.765 150.933 246.431 154.333 246.431 158.4C246.431 162.467 245.731 165.933 244.331 168.8C242.998 171.6 241.198 173.9 238.931 175.7C236.665 177.433 234.131 178.733 231.331 179.6C228.531 180.4 225.731 180.8 222.931 180.8ZM223.031 169.1C224.631 169.1 226.065 168.667 227.331 167.8C228.598 166.933 229.598 165.733 230.331 164.2C231.131 162.6 231.531 160.8 231.531 158.8C231.531 156.733 231.165 154.967 230.431 153.5C229.765 152.033 228.731 150.9 227.331 150.1C225.998 149.3 224.365 148.9 222.431 148.9C221.098 148.9 219.765 149.133 218.431 149.6C217.098 150 215.798 150.567 214.531 151.3C214.465 152.033 214.431 152.8 214.431 153.6C214.431 154.333 214.431 155.1 214.431 155.9C214.431 159.167 214.798 161.767 215.531 163.7C216.331 165.633 217.398 167.033 218.731 167.9C220.065 168.7 221.498 169.1 223.031 169.1ZM312.87 120.2C310.004 120.2 307.437 120.767 305.17 121.9C302.97 123.033 301.104 124.667 299.57 126.8C298.037 128.867 296.87 131.4 296.07 134.4C295.337 137.4 294.97 140.767 294.97 144.5C294.97 149.567 295.57 153.9 296.77 157.5C298.037 161.033 300.004 163.733 302.67 165.6C305.337 167.467 308.737 168.4 312.87 168.4C315.804 168.4 318.704 168.067 321.57 167.4C324.504 166.733 327.67 165.8 331.07 164.6V177.3C327.937 178.567 324.837 179.5 321.77 180.1C318.704 180.7 315.27 181 311.47 181C304.137 181 298.07 179.5 293.27 176.5C288.537 173.433 285.037 169.167 282.77 163.7C280.504 158.167 279.37 151.733 279.37 144.4C279.37 139 280.104 134.067 281.57 129.6C283.037 125.067 285.17 121.167 287.97 117.9C290.837 114.633 294.337 112.1 298.47 110.3C302.67 108.5 307.47 107.6 312.87 107.6C316.404 107.6 319.937 108.067 323.47 109C327.07 109.867 330.504 111.067 333.77 112.6L328.87 124.9C326.204 123.633 323.504 122.533 320.77 121.6C318.104 120.667 315.47 120.2 312.87 120.2ZM368.442 108.6C374.776 108.6 380.076 109.2 384.342 110.4C388.676 111.533 391.909 113.433 394.042 116.1C396.242 118.7 397.342 122.233 397.342 126.7C397.342 129.367 396.909 131.8 396.042 134C395.176 136.2 393.909 138 392.242 139.4C390.642 140.8 388.676 141.7 386.342 142.1V142.6C388.742 143.067 390.909 143.9 392.842 145.1C394.776 146.3 396.309 148.033 397.442 150.3C398.576 152.567 399.142 155.567 399.142 159.3C399.142 163.633 398.076 167.367 395.942 170.5C393.876 173.567 390.876 175.933 386.942 177.6C383.009 179.2 378.342 180 372.942 180H346.242V108.6H368.442ZM370.142 136.9C374.542 136.9 377.576 136.2 379.242 134.8C380.976 133.4 381.842 131.367 381.842 128.7C381.842 125.967 380.842 124 378.842 122.8C376.842 121.6 373.676 121 369.342 121H361.342V136.9H370.142ZM361.342 148.9V167.5H371.242C375.776 167.5 378.942 166.633 380.742 164.9C382.542 163.1 383.442 160.733 383.442 157.8C383.442 156 383.042 154.433 382.242 153.1C381.509 151.767 380.209 150.733 378.342 150C376.476 149.267 373.942 148.9 370.742 148.9H361.342Z" fill="white"/>
<path d="M267.777 284.173C209.065 284.173 150.353 282.854 89.5631 280.222C43.7606 278.24 6.81382 251.522 3.60949 218.066C-1.20162 167.649 -1.20162 116.521 3.60025 66.1103C6.81382 32.6543 43.7606 5.93007 89.5631 3.94774C211.152 -1.31591 324.421 -1.31591 445.992 3.94774C491.794 5.93007 528.741 32.6475 531.945 66.1035C536.756 116.521 536.756 167.649 531.954 218.059C528.741 251.515 491.794 278.24 445.992 280.222C385.202 282.854 326.489 284.173 267.777 284.173ZM444.911 266.718C481.47 265.135 510.965 243.809 513.532 217.119C518.287 167.338 518.287 116.846 513.522 67.0507C510.974 40.3671 481.47 19.0419 444.911 17.4587C324.052 12.2289 211.512 12.2289 90.6527 17.4587C54.0938 19.0419 24.5992 40.3671 22.0321 67.0575C17.2764 116.839 17.2764 167.331 22.0413 217.126C24.59 243.809 54.0938 265.135 90.6527 266.718C211.503 271.948 324.052 271.948 444.911 266.718Z" fill="url(#paint0_linear_1010_315)"/>
<defs>
<linearGradient id="paint0_linear_1010_315" x1="267.777" y1="-6.75548" x2="267.777" y2="296.013" gradientUnits="userSpaceOnUse">
<stop offset="0.9999" stop-color="white"/>
<stop offset="1" stop-color="#0032E3"/>
</linearGradient>
</defs>
</svg>
