<svg width="536" height="285" viewBox="0 0 536 285" fill="none" xmlns="http://www.w3.org/2000/svg">
<path d="M95.3 180C94.8333 180 94.3667 179.467 93.9 178.4C93.5 177.333 93.1667 176.1 92.9 174.7C92.6333 173.3 92.5 172.133 92.5 171.2C92.5 170.467 92.6 169.967 92.8 169.7L118.1 138.7C118.833 137.767 119.467 136.8 120 135.8C120.6 134.8 121.067 133.733 121.4 132.6C121.733 131.467 121.9 130.3 121.9 129.1C121.9 126.367 121 124.333 119.2 123C117.467 121.667 115.267 121 112.6 121C110.467 121 108.633 121.367 107.1 122.1C105.567 122.767 104.3 123.467 103.3 124.2C102.3 124.933 101.5 125.3 100.9 125.3C99.9 125.3 98.9667 124.9 98.1 124.1C97.2333 123.3 96.5333 122.367 96 121.3C95.4667 120.233 95.2 119.267 95.2 118.4C95.2 116.933 95.7667 115.633 96.9 114.5C98.1 113.367 99.6667 112.4 101.6 111.6C103.533 110.8 105.667 110.2 108 109.8C110.4 109.4 112.767 109.2 115.1 109.2C122.167 109.2 127.567 111.033 131.3 114.7C135.033 118.367 136.9 123.067 136.9 128.8C136.9 130.067 136.8 131.3 136.6 132.5C136.4 133.7 136.133 134.867 135.8 136C135.467 137.133 135.033 138.233 134.5 139.3C133.967 140.367 133.4 141.4 132.8 142.4C132.2 143.333 131.533 144.233 130.8 145.1L112 168.3H135.1C137.1 168.3 138.1 169.967 138.1 173.3V175C138.1 178.333 137.1 180 135.1 180H95.3ZM169.316 180.8C164.382 180.8 160.149 179.4 156.616 176.6C153.082 173.733 150.349 169.633 148.416 164.3C146.549 158.9 145.616 152.467 145.616 145C145.616 137.467 146.549 131.033 148.416 125.7C150.349 120.367 153.082 116.3 156.616 113.5C160.149 110.633 164.382 109.2 169.316 109.2C174.249 109.2 178.482 110.633 182.016 113.5C185.549 116.3 188.249 120.367 190.116 125.7C192.049 131.033 193.016 137.467 193.016 145C193.016 152.467 192.049 158.9 190.116 164.3C188.249 169.633 185.549 173.733 182.016 176.6C178.482 179.4 174.249 180.8 169.316 180.8ZM169.316 169.1C171.182 169.1 172.749 168.2 174.016 166.4C175.349 164.6 176.349 161.9 177.016 158.3C177.682 154.7 178.016 150.267 178.016 145C178.016 139.667 177.682 135.233 177.016 131.7C176.349 128.1 175.349 125.4 174.016 123.6C172.749 121.8 171.182 120.9 169.316 120.9C167.449 120.9 165.849 121.8 164.516 123.6C163.249 125.4 162.282 128.1 161.616 131.7C160.949 135.233 160.616 139.667 160.616 145C160.616 150.267 160.949 154.7 161.616 158.3C162.282 161.9 163.249 164.6 164.516 166.4C165.849 168.2 167.449 169.1 169.316 169.1ZM232.231 180.2C228.231 180.2 226.231 179.133 226.231 177V165.8H200.031C199.498 165.8 198.931 165.233 198.331 164.1C197.731 162.9 197.231 161.567 196.831 160.1C196.498 158.567 196.331 157.367 196.331 156.5C196.331 156.033 196.398 155.667 196.531 155.4L226.231 111.7C226.831 110.833 227.631 110.3 228.631 110.1C229.631 109.9 230.865 109.8 232.331 109.8H235.031C239.031 109.8 241.031 110.867 241.031 113V154.1H244.831C246.831 154.1 247.831 155.767 247.831 159.1V160.8C247.831 164.133 246.831 165.8 244.831 165.8H241.031V177C241.031 179.133 239.031 180.2 235.031 180.2H232.231ZM211.231 154.1H226.231V138.7C226.231 137.167 226.331 135.5 226.531 133.7C226.798 131.9 227.065 130.467 227.331 129.4L226.931 129.3L211.231 154.1ZM347.37 144.2C347.37 149.733 346.67 154.767 345.27 159.3C343.937 163.767 341.87 167.633 339.07 170.9C336.337 174.167 332.804 176.667 328.47 178.4C324.204 180.133 319.17 181 313.37 181C307.57 181 302.504 180.133 298.17 178.4C293.904 176.6 290.37 174.1 287.57 170.9C284.837 167.633 282.77 163.733 281.37 159.2C280.037 154.667 279.37 149.633 279.37 144.1C279.37 136.7 280.57 130.267 282.97 124.8C285.437 119.333 289.17 115.1 294.17 112.1C299.237 109.033 305.67 107.5 313.47 107.5C321.204 107.5 327.57 109.033 332.57 112.1C337.57 115.1 341.27 119.367 343.67 124.9C346.137 130.367 347.37 136.8 347.37 144.2ZM295.27 144.2C295.27 149.2 295.904 153.5 297.17 157.1C298.437 160.7 300.404 163.467 303.07 165.4C305.737 167.333 309.17 168.3 313.37 168.3C317.704 168.3 321.17 167.333 323.77 165.4C326.437 163.467 328.37 160.7 329.57 157.1C330.837 153.5 331.47 149.2 331.47 144.2C331.47 136.667 330.07 130.767 327.27 126.5C324.47 122.233 319.87 120.1 313.47 120.1C309.204 120.1 305.737 121.067 303.07 123C300.404 124.933 298.437 127.7 297.17 131.3C295.904 134.9 295.27 139.2 295.27 144.2ZM362.16 180V108.6H418.66V180H403.56V121.2H377.26V180H362.16Z" fill="white"/>
<path d="M267.777 284.173C209.065 284.173 150.353 282.854 89.5631 280.222C43.7606 278.24 6.81382 251.522 3.60949 218.066C-1.20162 167.649 -1.20162 116.521 3.60025 66.1103C6.81382 32.6543 43.7606 5.93007 89.5631 3.94774C211.152 -1.31591 324.421 -1.31591 445.992 3.94774C491.794 5.93007 528.741 32.6475 531.945 66.1035C536.756 116.521 536.756 167.649 531.954 218.059C528.741 251.515 491.794 278.24 445.992 280.222C385.202 282.854 326.489 284.173 267.777 284.173ZM444.911 266.718C481.47 265.135 510.965 243.809 513.532 217.119C518.287 167.338 518.287 116.846 513.522 67.0507C510.974 40.3671 481.47 19.0419 444.911 17.4587C324.052 12.2289 211.512 12.2289 90.6527 17.4587C54.0938 19.0419 24.5992 40.3671 22.0321 67.0575C17.2764 116.839 17.2764 167.331 22.0413 217.126C24.59 243.809 54.0938 265.135 90.6527 266.718C211.503 271.948 324.052 271.948 444.911 266.718Z" fill="url(#paint0_linear_1010_328)"/>
<defs>
<linearGradient id="paint0_linear_1010_328" x1="267.777" y1="-6.75548" x2="267.777" y2="296.013" gradientUnits="userSpaceOnUse">
<stop offset="0.9999" stop-color="white"/>
<stop offset="1" stop-color="#0032E3"/>
</linearGradient>
</defs>
</svg>
