<svg width="536" height="285" viewBox="0 0 536 285" fill="none" xmlns="http://www.w3.org/2000/svg">
<path d="M95.3 180C94.8333 180 94.3667 179.467 93.9 178.4C93.5 177.333 93.1667 176.1 92.9 174.7C92.6333 173.3 92.5 172.133 92.5 171.2C92.5 170.467 92.6 169.967 92.8 169.7L118.1 138.7C118.833 137.767 119.467 136.8 120 135.8C120.6 134.8 121.067 133.733 121.4 132.6C121.733 131.467 121.9 130.3 121.9 129.1C121.9 126.367 121 124.333 119.2 123C117.467 121.667 115.267 121 112.6 121C110.467 121 108.633 121.367 107.1 122.1C105.567 122.767 104.3 123.467 103.3 124.2C102.3 124.933 101.5 125.3 100.9 125.3C99.9 125.3 98.9667 124.9 98.1 124.1C97.2333 123.3 96.5333 122.367 96 121.3C95.4667 120.233 95.2 119.267 95.2 118.4C95.2 116.933 95.7667 115.633 96.9 114.5C98.1 113.367 99.6667 112.4 101.6 111.6C103.533 110.8 105.667 110.2 108 109.8C110.4 109.4 112.767 109.2 115.1 109.2C122.167 109.2 127.567 111.033 131.3 114.7C135.033 118.367 136.9 123.067 136.9 128.8C136.9 130.067 136.8 131.3 136.6 132.5C136.4 133.7 136.133 134.867 135.8 136C135.467 137.133 135.033 138.233 134.5 139.3C133.967 140.367 133.4 141.4 132.8 142.4C132.2 143.333 131.533 144.233 130.8 145.1L112 168.3H135.1C137.1 168.3 138.1 169.967 138.1 173.3V175C138.1 178.333 137.1 180 135.1 180H95.3ZM165.916 180.8C162.182 180.8 158.816 180.5 155.816 179.9C152.882 179.233 150.549 178.367 148.816 177.3C147.149 176.167 146.316 174.933 146.316 173.6C146.316 173 146.582 172.067 147.116 170.8C147.716 169.533 148.449 168.367 149.316 167.3C150.182 166.233 150.982 165.7 151.716 165.7C152.116 165.7 152.916 166 154.116 166.6C155.316 167.133 156.882 167.7 158.816 168.3C160.816 168.833 163.149 169.1 165.816 169.1C168.016 169.1 169.916 168.7 171.516 167.9C173.116 167.1 174.349 165.933 175.216 164.4C176.082 162.8 176.516 160.933 176.516 158.8C176.516 155.267 175.582 152.533 173.716 150.6C171.849 148.667 168.616 147.7 164.016 147.7H153.116C151.649 147.7 150.649 147.4 150.116 146.8C149.649 146.133 149.416 145.1 149.416 143.7L151.316 114C151.449 112.6 151.816 111.6 152.416 111C153.016 110.333 154.049 110 155.516 110H185.016C187.016 110 188.016 111.667 188.016 115V117.7C188.016 120.367 187.016 121.7 185.016 121.7H164.816L163.816 136H166.416C170.216 136 173.649 136.367 176.716 137.1C179.782 137.833 182.416 139.067 184.616 140.8C186.816 142.467 188.516 144.733 189.716 147.6C190.916 150.467 191.516 154.067 191.516 158.4C191.516 162.6 190.749 166.167 189.216 169.1C187.749 171.967 185.749 174.267 183.216 176C180.749 177.667 177.982 178.9 174.916 179.7C171.916 180.433 168.916 180.8 165.916 180.8ZM232.231 180.2C228.231 180.2 226.231 179.133 226.231 177V165.8H200.031C199.498 165.8 198.931 165.233 198.331 164.1C197.731 162.9 197.231 161.567 196.831 160.1C196.498 158.567 196.331 157.367 196.331 156.5C196.331 156.033 196.398 155.667 196.531 155.4L226.231 111.7C226.831 110.833 227.631 110.3 228.631 110.1C229.631 109.9 230.865 109.8 232.331 109.8H235.031C239.031 109.8 241.031 110.867 241.031 113V154.1H244.831C246.831 154.1 247.831 155.767 247.831 159.1V160.8C247.831 164.133 246.831 165.8 244.831 165.8H241.031V177C241.031 179.133 239.031 180.2 235.031 180.2H232.231ZM211.231 154.1H226.231V138.7C226.231 137.167 226.331 135.5 226.531 133.7C226.798 131.9 227.065 130.467 227.331 129.4L226.931 129.3L211.231 154.1ZM312.87 120.2C310.004 120.2 307.437 120.767 305.17 121.9C302.97 123.033 301.104 124.667 299.57 126.8C298.037 128.867 296.87 131.4 296.07 134.4C295.337 137.4 294.97 140.767 294.97 144.5C294.97 149.567 295.57 153.9 296.77 157.5C298.037 161.033 300.004 163.733 302.67 165.6C305.337 167.467 308.737 168.4 312.87 168.4C315.804 168.4 318.704 168.067 321.57 167.4C324.504 166.733 327.67 165.8 331.07 164.6V177.3C327.937 178.567 324.837 179.5 321.77 180.1C318.704 180.7 315.27 181 311.47 181C304.137 181 298.07 179.5 293.27 176.5C288.537 173.433 285.037 169.167 282.77 163.7C280.504 158.167 279.37 151.733 279.37 144.4C279.37 139 280.104 134.067 281.57 129.6C283.037 125.067 285.17 121.167 287.97 117.9C290.837 114.633 294.337 112.1 298.47 110.3C302.67 108.5 307.47 107.6 312.87 107.6C316.404 107.6 319.937 108.067 323.47 109C327.07 109.867 330.504 111.067 333.77 112.6L328.87 124.9C326.204 123.633 323.504 122.533 320.77 121.6C318.104 120.667 315.47 120.2 312.87 120.2ZM368.442 108.6C374.776 108.6 380.076 109.2 384.342 110.4C388.676 111.533 391.909 113.433 394.042 116.1C396.242 118.7 397.342 122.233 397.342 126.7C397.342 129.367 396.909 131.8 396.042 134C395.176 136.2 393.909 138 392.242 139.4C390.642 140.8 388.676 141.7 386.342 142.1V142.6C388.742 143.067 390.909 143.9 392.842 145.1C394.776 146.3 396.309 148.033 397.442 150.3C398.576 152.567 399.142 155.567 399.142 159.3C399.142 163.633 398.076 167.367 395.942 170.5C393.876 173.567 390.876 175.933 386.942 177.6C383.009 179.2 378.342 180 372.942 180H346.242V108.6H368.442ZM370.142 136.9C374.542 136.9 377.576 136.2 379.242 134.8C380.976 133.4 381.842 131.367 381.842 128.7C381.842 125.967 380.842 124 378.842 122.8C376.842 121.6 373.676 121 369.342 121H361.342V136.9H370.142ZM361.342 148.9V167.5H371.242C375.776 167.5 378.942 166.633 380.742 164.9C382.542 163.1 383.442 160.733 383.442 157.8C383.442 156 383.042 154.433 382.242 153.1C381.509 151.767 380.209 150.733 378.342 150C376.476 149.267 373.942 148.9 370.742 148.9H361.342Z" fill="white"/>
<path d="M267.777 284.173C209.065 284.173 150.353 282.854 89.5631 280.222C43.7606 278.24 6.81382 251.522 3.60949 218.066C-1.20162 167.649 -1.20162 116.521 3.60025 66.1103C6.81382 32.6543 43.7606 5.93007 89.5631 3.94774C211.152 -1.31591 324.421 -1.31591 445.992 3.94774C491.794 5.93007 528.741 32.6475 531.945 66.1035C536.756 116.521 536.756 167.649 531.954 218.059C528.741 251.515 491.794 278.24 445.992 280.222C385.202 282.854 326.489 284.173 267.777 284.173ZM444.911 266.718C481.47 265.135 510.965 243.809 513.532 217.119C518.287 167.338 518.287 116.846 513.522 67.0507C510.974 40.3671 481.47 19.0419 444.911 17.4587C324.052 12.2289 211.512 12.2289 90.6527 17.4587C54.0938 19.0419 24.5992 40.3671 22.0321 67.0575C17.2764 116.839 17.2764 167.331 22.0413 217.126C24.59 243.809 54.0938 265.135 90.6527 266.718C211.503 271.948 324.052 271.948 444.911 266.718Z" fill="url(#paint0_linear_1010_324)"/>
<defs>
<linearGradient id="paint0_linear_1010_324" x1="267.777" y1="-6.75548" x2="267.777" y2="296.013" gradientUnits="userSpaceOnUse">
<stop offset="0.9999" stop-color="white"/>
<stop offset="1" stop-color="#0032E3"/>
</linearGradient>
</defs>
</svg>
