<svg width="536" height="285" viewBox="0 0 536 285" fill="none" xmlns="http://www.w3.org/2000/svg">
<path d="M114.3 180.8C112.433 180.8 110.267 180.667 107.8 180.4C105.333 180.133 102.933 179.7 100.6 179.1C98.3333 178.433 96.4333 177.567 94.9 176.5C93.3667 175.433 92.6 174.133 92.6 172.6C92.6 171.933 92.8333 171 93.3 169.8C93.8333 168.6 94.4667 167.5 95.2 166.5C96 165.5 96.7667 165 97.5 165C98.1 165 99 165.333 100.2 166C101.467 166.667 103.067 167.367 105 168.1C107 168.767 109.333 169.1 112 169.1C114 169.1 115.733 168.733 117.2 168C118.667 167.2 119.8 166.1 120.6 164.7C121.467 163.233 121.9 161.467 121.9 159.4C121.9 156.067 121 153.533 119.2 151.8C117.4 150.067 114.4 149.2 110.2 149.2H107.4C105.4 149.2 104.4 147.533 104.4 144.2V142.4C104.4 139.067 105.4 137.4 107.4 137.4H109.3C111.5 137.4 113.367 137.067 114.9 136.4C116.433 135.667 117.6 134.7 118.4 133.5C119.2 132.233 119.6 130.767 119.6 129.1C119.6 127.433 119.3 126 118.7 124.8C118.1 123.6 117.2 122.667 116 122C114.8 121.333 113.3 121 111.5 121C108.967 121 106.933 121.267 105.4 121.8C103.933 122.267 102.767 122.767 101.9 123.3C101.033 123.833 100.3 124.1 99.7 124.1C99.0333 124.1 98.3 123.667 97.5 122.8C96.7667 121.867 96.1 120.8 95.5 119.6C94.9667 118.4 94.7 117.367 94.7 116.5C94.7 115.233 95.2333 114.167 96.3 113.3C97.3667 112.367 98.8 111.6 100.6 111C102.467 110.4 104.567 109.967 106.9 109.7C109.233 109.367 111.633 109.2 114.1 109.2C120.367 109.2 125.333 110.8 129 114C132.733 117.133 134.6 121.367 134.6 126.7C134.6 130.167 133.767 133.167 132.1 135.7C130.433 138.233 128.167 140.1 125.3 141.3V141.7C127.967 142.7 130.133 144.1 131.8 145.9C133.533 147.633 134.8 149.667 135.6 152C136.467 154.333 136.9 156.867 136.9 159.6C136.9 162.933 136.333 165.9 135.2 168.5C134.133 171.1 132.6 173.333 130.6 175.2C128.6 177 126.2 178.4 123.4 179.4C120.667 180.333 117.633 180.8 114.3 180.8ZM169.316 180.8C164.382 180.8 160.149 179.4 156.616 176.6C153.082 173.733 150.349 169.633 148.416 164.3C146.549 158.9 145.616 152.467 145.616 145C145.616 137.467 146.549 131.033 148.416 125.7C150.349 120.367 153.082 116.3 156.616 113.5C160.149 110.633 164.382 109.2 169.316 109.2C174.249 109.2 178.482 110.633 182.016 113.5C185.549 116.3 188.249 120.367 190.116 125.7C192.049 131.033 193.016 137.467 193.016 145C193.016 152.467 192.049 158.9 190.116 164.3C188.249 169.633 185.549 173.733 182.016 176.6C178.482 179.4 174.249 180.8 169.316 180.8ZM169.316 169.1C171.182 169.1 172.749 168.2 174.016 166.4C175.349 164.6 176.349 161.9 177.016 158.3C177.682 154.7 178.016 150.267 178.016 145C178.016 139.667 177.682 135.233 177.016 131.7C176.349 128.1 175.349 125.4 174.016 123.6C172.749 121.8 171.182 120.9 169.316 120.9C167.449 120.9 165.849 121.8 164.516 123.6C163.249 125.4 162.282 128.1 161.616 131.7C160.949 135.233 160.616 139.667 160.616 145C160.616 150.267 160.949 154.7 161.616 158.3C162.282 161.9 163.249 164.6 164.516 166.4C165.849 168.2 167.449 169.1 169.316 169.1ZM221.331 180.8C219.465 180.8 217.298 180.667 214.831 180.4C212.365 180.133 209.965 179.7 207.631 179.1C205.365 178.433 203.465 177.567 201.931 176.5C200.398 175.433 199.631 174.133 199.631 172.6C199.631 171.933 199.865 171 200.331 169.8C200.865 168.6 201.498 167.5 202.231 166.5C203.031 165.5 203.798 165 204.531 165C205.131 165 206.031 165.333 207.231 166C208.498 166.667 210.098 167.367 212.031 168.1C214.031 168.767 216.365 169.1 219.031 169.1C221.031 169.1 222.765 168.733 224.231 168C225.698 167.2 226.831 166.1 227.631 164.7C228.498 163.233 228.931 161.467 228.931 159.4C228.931 156.067 228.031 153.533 226.231 151.8C224.431 150.067 221.431 149.2 217.231 149.2H214.431C212.431 149.2 211.431 147.533 211.431 144.2V142.4C211.431 139.067 212.431 137.4 214.431 137.4H216.331C218.531 137.4 220.398 137.067 221.931 136.4C223.465 135.667 224.631 134.7 225.431 133.5C226.231 132.233 226.631 130.767 226.631 129.1C226.631 127.433 226.331 126 225.731 124.8C225.131 123.6 224.231 122.667 223.031 122C221.831 121.333 220.331 121 218.531 121C215.998 121 213.965 121.267 212.431 121.8C210.965 122.267 209.798 122.767 208.931 123.3C208.065 123.833 207.331 124.1 206.731 124.1C206.065 124.1 205.331 123.667 204.531 122.8C203.798 121.867 203.131 120.8 202.531 119.6C201.998 118.4 201.731 117.367 201.731 116.5C201.731 115.233 202.265 114.167 203.331 113.3C204.398 112.367 205.831 111.6 207.631 111C209.498 110.4 211.598 109.967 213.931 109.7C216.265 109.367 218.665 109.2 221.131 109.2C227.398 109.2 232.365 110.8 236.031 114C239.765 117.133 241.631 121.367 241.631 126.7C241.631 130.167 240.798 133.167 239.131 135.7C237.465 138.233 235.198 140.1 232.331 141.3V141.7C234.998 142.7 237.165 144.1 238.831 145.9C240.565 147.633 241.831 149.667 242.631 152C243.498 154.333 243.931 156.867 243.931 159.6C243.931 162.933 243.365 165.9 242.231 168.5C241.165 171.1 239.631 173.333 237.631 175.2C235.631 177 233.231 178.4 230.431 179.4C227.698 180.333 224.665 180.8 221.331 180.8ZM347.37 144.2C347.37 149.733 346.67 154.767 345.27 159.3C343.937 163.767 341.87 167.633 339.07 170.9C336.337 174.167 332.804 176.667 328.47 178.4C324.204 180.133 319.17 181 313.37 181C307.57 181 302.504 180.133 298.17 178.4C293.904 176.6 290.37 174.1 287.57 170.9C284.837 167.633 282.77 163.733 281.37 159.2C280.037 154.667 279.37 149.633 279.37 144.1C279.37 136.7 280.57 130.267 282.97 124.8C285.437 119.333 289.17 115.1 294.17 112.1C299.237 109.033 305.67 107.5 313.47 107.5C321.204 107.5 327.57 109.033 332.57 112.1C337.57 115.1 341.27 119.367 343.67 124.9C346.137 130.367 347.37 136.8 347.37 144.2ZM295.27 144.2C295.27 149.2 295.904 153.5 297.17 157.1C298.437 160.7 300.404 163.467 303.07 165.4C305.737 167.333 309.17 168.3 313.37 168.3C317.704 168.3 321.17 167.333 323.77 165.4C326.437 163.467 328.37 160.7 329.57 157.1C330.837 153.5 331.47 149.2 331.47 144.2C331.47 136.667 330.07 130.767 327.27 126.5C324.47 122.233 319.87 120.1 313.47 120.1C309.204 120.1 305.737 121.067 303.07 123C300.404 124.933 298.437 127.7 297.17 131.3C295.904 134.9 295.27 139.2 295.27 144.2ZM362.16 180V108.6H418.66V180H403.56V121.2H377.26V180H362.16Z" fill="white"/>
<path d="M267.777 284.173C209.065 284.173 150.353 282.854 89.5631 280.222C43.7606 278.24 6.81382 251.522 3.60949 218.066C-1.20162 167.649 -1.20162 116.521 3.60025 66.1103C6.81382 32.6543 43.7606 5.93007 89.5631 3.94774C211.152 -1.31591 324.421 -1.31591 445.992 3.94774C491.794 5.93007 528.741 32.6475 531.945 66.1035C536.756 116.521 536.756 167.649 531.954 218.059C528.741 251.515 491.794 278.24 445.992 280.222C385.202 282.854 326.489 284.173 267.777 284.173ZM444.911 266.718C481.47 265.135 510.965 243.809 513.532 217.119C518.287 167.338 518.287 116.846 513.522 67.0507C510.974 40.3671 481.47 19.0419 444.911 17.4587C324.052 12.2289 211.512 12.2289 90.6527 17.4587C54.0938 19.0419 24.5992 40.3671 22.0321 67.0575C17.2764 116.839 17.2764 167.331 22.0413 217.126C24.59 243.809 54.0938 265.135 90.6527 266.718C211.503 271.948 324.052 271.948 444.911 266.718Z" fill="url(#paint0_linear_1010_332)"/>
<defs>
<linearGradient id="paint0_linear_1010_332" x1="267.777" y1="-6.75548" x2="267.777" y2="296.013" gradientUnits="userSpaceOnUse">
<stop offset="0.9999" stop-color="white"/>
<stop offset="1" stop-color="#0032E3"/>
</linearGradient>
</defs>
</svg>
