<svg width="536" height="285" viewBox="0 0 536 285" fill="none" xmlns="http://www.w3.org/2000/svg">
<path d="M114.3 180.8C112.433 180.8 110.267 180.667 107.8 180.4C105.333 180.133 102.933 179.7 100.6 179.1C98.3333 178.433 96.4333 177.567 94.9 176.5C93.3667 175.433 92.6 174.133 92.6 172.6C92.6 171.933 92.8333 171 93.3 169.8C93.8333 168.6 94.4667 167.5 95.2 166.5C96 165.5 96.7667 165 97.5 165C98.1 165 99 165.333 100.2 166C101.467 166.667 103.067 167.367 105 168.1C107 168.767 109.333 169.1 112 169.1C114 169.1 115.733 168.733 117.2 168C118.667 167.2 119.8 166.1 120.6 164.7C121.467 163.233 121.9 161.467 121.9 159.4C121.9 156.067 121 153.533 119.2 151.8C117.4 150.067 114.4 149.2 110.2 149.2H107.4C105.4 149.2 104.4 147.533 104.4 144.2V142.4C104.4 139.067 105.4 137.4 107.4 137.4H109.3C111.5 137.4 113.367 137.067 114.9 136.4C116.433 135.667 117.6 134.7 118.4 133.5C119.2 132.233 119.6 130.767 119.6 129.1C119.6 127.433 119.3 126 118.7 124.8C118.1 123.6 117.2 122.667 116 122C114.8 121.333 113.3 121 111.5 121C108.967 121 106.933 121.267 105.4 121.8C103.933 122.267 102.767 122.767 101.9 123.3C101.033 123.833 100.3 124.1 99.7 124.1C99.0333 124.1 98.3 123.667 97.5 122.8C96.7667 121.867 96.1 120.8 95.5 119.6C94.9667 118.4 94.7 117.367 94.7 116.5C94.7 115.233 95.2333 114.167 96.3 113.3C97.3667 112.367 98.8 111.6 100.6 111C102.467 110.4 104.567 109.967 106.9 109.7C109.233 109.367 111.633 109.2 114.1 109.2C120.367 109.2 125.333 110.8 129 114C132.733 117.133 134.6 121.367 134.6 126.7C134.6 130.167 133.767 133.167 132.1 135.7C130.433 138.233 128.167 140.1 125.3 141.3V141.7C127.967 142.7 130.133 144.1 131.8 145.9C133.533 147.633 134.8 149.667 135.6 152C136.467 154.333 136.9 156.867 136.9 159.6C136.9 162.933 136.333 165.9 135.2 168.5C134.133 171.1 132.6 173.333 130.6 175.2C128.6 177 126.2 178.4 123.4 179.4C120.667 180.333 117.633 180.8 114.3 180.8ZM148.816 180C148.349 180 147.882 179.467 147.416 178.4C147.016 177.333 146.682 176.1 146.416 174.7C146.149 173.3 146.016 172.133 146.016 171.2C146.016 170.467 146.116 169.967 146.316 169.7L171.616 138.7C172.349 137.767 172.982 136.8 173.516 135.8C174.116 134.8 174.582 133.733 174.916 132.6C175.249 131.467 175.416 130.3 175.416 129.1C175.416 126.367 174.516 124.333 172.716 123C170.982 121.667 168.782 121 166.116 121C163.982 121 162.149 121.367 160.616 122.1C159.082 122.767 157.816 123.467 156.816 124.2C155.816 124.933 155.016 125.3 154.416 125.3C153.416 125.3 152.482 124.9 151.616 124.1C150.749 123.3 150.049 122.367 149.516 121.3C148.982 120.233 148.716 119.267 148.716 118.4C148.716 116.933 149.282 115.633 150.416 114.5C151.616 113.367 153.182 112.4 155.116 111.6C157.049 110.8 159.182 110.2 161.516 109.8C163.916 109.4 166.282 109.2 168.616 109.2C175.682 109.2 181.082 111.033 184.816 114.7C188.549 118.367 190.416 123.067 190.416 128.8C190.416 130.067 190.316 131.3 190.116 132.5C189.916 133.7 189.649 134.867 189.316 136C188.982 137.133 188.549 138.233 188.016 139.3C187.482 140.367 186.916 141.4 186.316 142.4C185.716 143.333 185.049 144.233 184.316 145.1L165.516 168.3H188.616C190.616 168.3 191.616 169.967 191.616 173.3V175C191.616 178.333 190.616 180 188.616 180H148.816ZM223.131 180.8C217.465 180.8 212.831 179.833 209.231 177.9C205.698 175.967 203.098 173.4 201.431 170.2C199.765 167 198.931 163.567 198.931 159.9C198.931 156.767 199.398 154.033 200.331 151.7C201.265 149.367 202.498 147.433 204.031 145.9C205.565 144.3 207.231 143.167 209.031 142.5C206.898 141.033 205.131 139.2 203.731 137C202.331 134.733 201.631 131.767 201.631 128.1C201.631 124.833 202.431 121.767 204.031 118.9C205.631 116.033 208.065 113.7 211.331 111.9C214.598 110.1 218.698 109.2 223.631 109.2C227.965 109.2 231.665 110 234.731 111.6C237.865 113.2 240.231 115.333 241.831 118C243.498 120.6 244.331 123.467 244.331 126.6C244.331 130.8 243.498 134 241.831 136.2C240.231 138.4 238.165 140.167 235.631 141.5C237.698 142.433 239.565 143.7 241.231 145.3C242.898 146.9 244.198 148.967 245.131 151.5C246.131 154.033 246.631 157.133 246.631 160.8C246.631 163.067 246.198 165.4 245.331 167.8C244.465 170.133 243.098 172.3 241.231 174.3C239.431 176.233 237.031 177.8 234.031 179C231.031 180.2 227.398 180.8 223.131 180.8ZM222.931 169.1C224.865 169.1 226.465 168.633 227.731 167.7C229.065 166.767 230.031 165.6 230.631 164.2C231.298 162.8 231.631 161.4 231.631 160C231.631 158 231.298 156.333 230.631 155C229.965 153.667 229.065 152.567 227.931 151.7C226.798 150.767 225.465 149.967 223.931 149.3C222.465 148.633 220.931 148 219.331 147.4C217.665 148.667 216.331 150.2 215.331 152C214.331 153.8 213.831 156.133 213.831 159C213.831 162 214.631 164.433 216.231 166.3C217.831 168.167 220.065 169.1 222.931 169.1ZM224.531 136.8C226.331 135.6 227.665 134.233 228.531 132.7C229.465 131.1 229.931 129.4 229.931 127.6C229.931 125.467 229.231 123.833 227.831 122.7C226.498 121.5 224.931 120.9 223.131 120.9C221.331 120.9 219.731 121.467 218.331 122.6C216.931 123.733 216.231 125.4 216.231 127.6C216.231 129.267 216.598 130.667 217.331 131.8C218.065 132.933 219.065 133.9 220.331 134.7C221.598 135.433 222.998 136.133 224.531 136.8ZM300.57 120.2C297.37 120.2 294.204 120.667 291.07 121.6C287.937 122.467 284.87 123.533 281.87 124.8L277.07 112.6C280.604 111.067 284.337 109.867 288.27 109C292.204 108.067 296.404 107.6 300.87 107.6C306.137 107.6 310.804 108.433 314.87 110.1C319.004 111.7 322.47 114.1 325.27 117.3C328.137 120.433 330.304 124.3 331.77 128.9C333.304 133.433 334.07 138.6 334.07 144.4C334.07 151.733 332.837 158.167 330.37 163.7C327.904 169.167 324.104 173.433 318.97 176.5C313.904 179.5 307.404 181 299.47 181C295.404 181 291.704 180.7 288.37 180.1C285.104 179.5 281.77 178.567 278.37 177.3V164.6C282.17 165.8 285.67 166.733 288.87 167.4C292.137 168.067 295.37 168.4 298.57 168.4C301.637 168.4 304.337 168.033 306.67 167.3C309.07 166.5 311.07 165.367 312.67 163.9C314.337 162.367 315.637 160.467 316.57 158.2C317.504 155.867 318.037 153.2 318.17 150.2H287.17V137.8H318.07C318.004 135 317.537 132.533 316.67 130.4C315.804 128.2 314.604 126.367 313.07 124.9C311.537 123.367 309.704 122.2 307.57 121.4C305.504 120.6 303.17 120.2 300.57 120.2ZM379.079 180L361.879 124H361.479C361.546 125.333 361.646 127.333 361.779 130C361.912 132.667 362.046 135.533 362.179 138.6C362.312 141.6 362.379 144.333 362.379 146.8V180H348.879V108.6H369.479L386.379 163.2H386.679L404.579 108.6H425.179V180H411.079V146.2C411.079 143.933 411.112 141.333 411.179 138.4C411.312 135.467 411.412 132.7 411.479 130.1C411.612 127.433 411.712 125.433 411.779 124.1H411.379L392.979 180H379.079Z" fill="white"/>
<path d="M267.777 284.173C209.065 284.173 150.353 282.854 89.5631 280.222C43.7606 278.24 6.81382 251.522 3.60949 218.066C-1.20162 167.649 -1.20162 116.521 3.60025 66.1103C6.81382 32.6543 43.7606 5.93007 89.5631 3.94774C211.152 -1.31591 324.421 -1.31591 445.992 3.94774C491.794 5.93007 528.741 32.6475 531.945 66.1035C536.756 116.521 536.756 167.649 531.954 218.059C528.741 251.515 491.794 278.24 445.992 280.222C385.202 282.854 326.489 284.173 267.777 284.173ZM444.911 266.718C481.47 265.135 510.965 243.809 513.532 217.119C518.287 167.338 518.287 116.846 513.522 67.0507C510.974 40.3671 481.47 19.0419 444.911 17.4587C324.052 12.2289 211.512 12.2289 90.6527 17.4587C54.0938 19.0419 24.5992 40.3671 22.0321 67.0575C17.2764 116.839 17.2764 167.331 22.0413 217.126C24.59 243.809 54.0938 265.135 90.6527 266.718C211.503 271.948 324.052 271.948 444.911 266.718Z" fill="url(#paint0_linear_1039_9)"/>
<defs>
<linearGradient id="paint0_linear_1039_9" x1="267.777" y1="-6.75548" x2="267.777" y2="296.013" gradientUnits="userSpaceOnUse">
<stop offset="0.9999" stop-color="white"/>
<stop offset="1" stop-color="#0032E3"/>
</linearGradient>
</defs>
</svg>
