<svg width="536" height="285" viewBox="0 0 536 285" fill="none" xmlns="http://www.w3.org/2000/svg">
<path d="M114.3 180.8C112.433 180.8 110.267 180.667 107.8 180.4C105.333 180.133 102.933 179.7 100.6 179.1C98.3333 178.433 96.4333 177.567 94.9 176.5C93.3667 175.433 92.6 174.133 92.6 172.6C92.6 171.933 92.8333 171 93.3 169.8C93.8333 168.6 94.4667 167.5 95.2 166.5C96 165.5 96.7667 165 97.5 165C98.1 165 99 165.333 100.2 166C101.467 166.667 103.067 167.367 105 168.1C107 168.767 109.333 169.1 112 169.1C114 169.1 115.733 168.733 117.2 168C118.667 167.2 119.8 166.1 120.6 164.7C121.467 163.233 121.9 161.467 121.9 159.4C121.9 156.067 121 153.533 119.2 151.8C117.4 150.067 114.4 149.2 110.2 149.2H107.4C105.4 149.2 104.4 147.533 104.4 144.2V142.4C104.4 139.067 105.4 137.4 107.4 137.4H109.3C111.5 137.4 113.367 137.067 114.9 136.4C116.433 135.667 117.6 134.7 118.4 133.5C119.2 132.233 119.6 130.767 119.6 129.1C119.6 127.433 119.3 126 118.7 124.8C118.1 123.6 117.2 122.667 116 122C114.8 121.333 113.3 121 111.5 121C108.967 121 106.933 121.267 105.4 121.8C103.933 122.267 102.767 122.767 101.9 123.3C101.033 123.833 100.3 124.1 99.7 124.1C99.0333 124.1 98.3 123.667 97.5 122.8C96.7667 121.867 96.1 120.8 95.5 119.6C94.9667 118.4 94.7 117.367 94.7 116.5C94.7 115.233 95.2333 114.167 96.3 113.3C97.3667 112.367 98.8 111.6 100.6 111C102.467 110.4 104.567 109.967 106.9 109.7C109.233 109.367 111.633 109.2 114.1 109.2C120.367 109.2 125.333 110.8 129 114C132.733 117.133 134.6 121.367 134.6 126.7C134.6 130.167 133.767 133.167 132.1 135.7C130.433 138.233 128.167 140.1 125.3 141.3V141.7C127.967 142.7 130.133 144.1 131.8 145.9C133.533 147.633 134.8 149.667 135.6 152C136.467 154.333 136.9 156.867 136.9 159.6C136.9 162.933 136.333 165.9 135.2 168.5C134.133 171.1 132.6 173.333 130.6 175.2C128.6 177 126.2 178.4 123.4 179.4C120.667 180.333 117.633 180.8 114.3 180.8ZM167.816 180.8C165.949 180.8 163.782 180.667 161.316 180.4C158.849 180.133 156.449 179.7 154.116 179.1C151.849 178.433 149.949 177.567 148.416 176.5C146.882 175.433 146.116 174.133 146.116 172.6C146.116 171.933 146.349 171 146.816 169.8C147.349 168.6 147.982 167.5 148.716 166.5C149.516 165.5 150.282 165 151.016 165C151.616 165 152.516 165.333 153.716 166C154.982 166.667 156.582 167.367 158.516 168.1C160.516 168.767 162.849 169.1 165.516 169.1C167.516 169.1 169.249 168.733 170.716 168C172.182 167.2 173.316 166.1 174.116 164.7C174.982 163.233 175.416 161.467 175.416 159.4C175.416 156.067 174.516 153.533 172.716 151.8C170.916 150.067 167.916 149.2 163.716 149.2H160.916C158.916 149.2 157.916 147.533 157.916 144.2V142.4C157.916 139.067 158.916 137.4 160.916 137.4H162.816C165.016 137.4 166.882 137.067 168.416 136.4C169.949 135.667 171.116 134.7 171.916 133.5C172.716 132.233 173.116 130.767 173.116 129.1C173.116 127.433 172.816 126 172.216 124.8C171.616 123.6 170.716 122.667 169.516 122C168.316 121.333 166.816 121 165.016 121C162.482 121 160.449 121.267 158.916 121.8C157.449 122.267 156.282 122.767 155.416 123.3C154.549 123.833 153.816 124.1 153.216 124.1C152.549 124.1 151.816 123.667 151.016 122.8C150.282 121.867 149.616 120.8 149.016 119.6C148.482 118.4 148.216 117.367 148.216 116.5C148.216 115.233 148.749 114.167 149.816 113.3C150.882 112.367 152.316 111.6 154.116 111C155.982 110.4 158.082 109.967 160.416 109.7C162.749 109.367 165.149 109.2 167.616 109.2C173.882 109.2 178.849 110.8 182.516 114C186.249 117.133 188.116 121.367 188.116 126.7C188.116 130.167 187.282 133.167 185.616 135.7C183.949 138.233 181.682 140.1 178.816 141.3V141.7C181.482 142.7 183.649 144.1 185.316 145.9C187.049 147.633 188.316 149.667 189.116 152C189.982 154.333 190.416 156.867 190.416 159.6C190.416 162.933 189.849 165.9 188.716 168.5C187.649 171.1 186.116 173.333 184.116 175.2C182.116 177 179.716 178.4 176.916 179.4C174.182 180.333 171.149 180.8 167.816 180.8ZM221.331 180.8C219.465 180.8 217.298 180.667 214.831 180.4C212.365 180.133 209.965 179.7 207.631 179.1C205.365 178.433 203.465 177.567 201.931 176.5C200.398 175.433 199.631 174.133 199.631 172.6C199.631 171.933 199.865 171 200.331 169.8C200.865 168.6 201.498 167.5 202.231 166.5C203.031 165.5 203.798 165 204.531 165C205.131 165 206.031 165.333 207.231 166C208.498 166.667 210.098 167.367 212.031 168.1C214.031 168.767 216.365 169.1 219.031 169.1C221.031 169.1 222.765 168.733 224.231 168C225.698 167.2 226.831 166.1 227.631 164.7C228.498 163.233 228.931 161.467 228.931 159.4C228.931 156.067 228.031 153.533 226.231 151.8C224.431 150.067 221.431 149.2 217.231 149.2H214.431C212.431 149.2 211.431 147.533 211.431 144.2V142.4C211.431 139.067 212.431 137.4 214.431 137.4H216.331C218.531 137.4 220.398 137.067 221.931 136.4C223.465 135.667 224.631 134.7 225.431 133.5C226.231 132.233 226.631 130.767 226.631 129.1C226.631 127.433 226.331 126 225.731 124.8C225.131 123.6 224.231 122.667 223.031 122C221.831 121.333 220.331 121 218.531 121C215.998 121 213.965 121.267 212.431 121.8C210.965 122.267 209.798 122.767 208.931 123.3C208.065 123.833 207.331 124.1 206.731 124.1C206.065 124.1 205.331 123.667 204.531 122.8C203.798 121.867 203.131 120.8 202.531 119.6C201.998 118.4 201.731 117.367 201.731 116.5C201.731 115.233 202.265 114.167 203.331 113.3C204.398 112.367 205.831 111.6 207.631 111C209.498 110.4 211.598 109.967 213.931 109.7C216.265 109.367 218.665 109.2 221.131 109.2C227.398 109.2 232.365 110.8 236.031 114C239.765 117.133 241.631 121.367 241.631 126.7C241.631 130.167 240.798 133.167 239.131 135.7C237.465 138.233 235.198 140.1 232.331 141.3V141.7C234.998 142.7 237.165 144.1 238.831 145.9C240.565 147.633 241.831 149.667 242.631 152C243.498 154.333 243.931 156.867 243.931 159.6C243.931 162.933 243.365 165.9 242.231 168.5C241.165 171.1 239.631 173.333 237.631 175.2C235.631 177 233.231 178.4 230.431 179.4C227.698 180.333 224.665 180.8 221.331 180.8ZM312.87 120.2C310.004 120.2 307.437 120.767 305.17 121.9C302.97 123.033 301.104 124.667 299.57 126.8C298.037 128.867 296.87 131.4 296.07 134.4C295.337 137.4 294.97 140.767 294.97 144.5C294.97 149.567 295.57 153.9 296.77 157.5C298.037 161.033 300.004 163.733 302.67 165.6C305.337 167.467 308.737 168.4 312.87 168.4C315.804 168.4 318.704 168.067 321.57 167.4C324.504 166.733 327.67 165.8 331.07 164.6V177.3C327.937 178.567 324.837 179.5 321.77 180.1C318.704 180.7 315.27 181 311.47 181C304.137 181 298.07 179.5 293.27 176.5C288.537 173.433 285.037 169.167 282.77 163.7C280.504 158.167 279.37 151.733 279.37 144.4C279.37 139 280.104 134.067 281.57 129.6C283.037 125.067 285.17 121.167 287.97 117.9C290.837 114.633 294.337 112.1 298.47 110.3C302.67 108.5 307.47 107.6 312.87 107.6C316.404 107.6 319.937 108.067 323.47 109C327.07 109.867 330.504 111.067 333.77 112.6L328.87 124.9C326.204 123.633 323.504 122.533 320.77 121.6C318.104 120.667 315.47 120.2 312.87 120.2ZM376.442 180L359.242 124H358.842C358.909 125.333 359.009 127.333 359.142 130C359.276 132.667 359.409 135.533 359.542 138.6C359.676 141.6 359.742 144.333 359.742 146.8V180H346.242V108.6H366.842L383.742 163.2H384.042L401.942 108.6H422.542V180H408.442V146.2C408.442 143.933 408.476 141.333 408.542 138.4C408.676 135.467 408.776 132.7 408.842 130.1C408.976 127.433 409.076 125.433 409.142 124.1H408.742L390.342 180H376.442Z" fill="white"/>
<path d="M267.777 284.173C209.065 284.173 150.353 282.854 89.5631 280.222C43.7606 278.24 6.81382 251.522 3.60949 218.066C-1.20162 167.649 -1.20162 116.521 3.60025 66.1103C6.81382 32.6543 43.7606 5.93007 89.5631 3.94774C211.152 -1.31591 324.421 -1.31591 445.992 3.94774C491.794 5.93007 528.741 32.6475 531.945 66.1035C536.756 116.521 536.756 167.649 531.954 218.059C528.741 251.515 491.794 278.24 445.992 280.222C385.202 282.854 326.489 284.173 267.777 284.173ZM444.911 266.718C481.47 265.135 510.965 243.809 513.532 217.119C518.287 167.338 518.287 116.846 513.522 67.0507C510.974 40.3671 481.47 19.0419 444.911 17.4587C324.052 12.2289 211.512 12.2289 90.6527 17.4587C54.0938 19.0419 24.5992 40.3671 22.0321 67.0575C17.2764 116.839 17.2764 167.331 22.0413 217.126C24.59 243.809 54.0938 265.135 90.6527 266.718C211.503 271.948 324.052 271.948 444.911 266.718Z" fill="url(#paint0_linear_1064_12)"/>
<defs>
<linearGradient id="paint0_linear_1064_12" x1="267.777" y1="-6.75548" x2="267.777" y2="296.013" gradientUnits="userSpaceOnUse">
<stop offset="0.9999" stop-color="white"/>
<stop offset="1" stop-color="#0032E3"/>
</linearGradient>
</defs>
</svg>
