<svg width="536" height="285" viewBox="0 0 536 285" fill="none" xmlns="http://www.w3.org/2000/svg">
<path d="M114.3 180.8C112.433 180.8 110.267 180.667 107.8 180.4C105.333 180.133 102.933 179.7 100.6 179.1C98.3333 178.433 96.4333 177.567 94.9 176.5C93.3667 175.433 92.6 174.133 92.6 172.6C92.6 171.933 92.8333 171 93.3 169.8C93.8333 168.6 94.4667 167.5 95.2 166.5C96 165.5 96.7667 165 97.5 165C98.1 165 99 165.333 100.2 166C101.467 166.667 103.067 167.367 105 168.1C107 168.767 109.333 169.1 112 169.1C114 169.1 115.733 168.733 117.2 168C118.667 167.2 119.8 166.1 120.6 164.7C121.467 163.233 121.9 161.467 121.9 159.4C121.9 156.067 121 153.533 119.2 151.8C117.4 150.067 114.4 149.2 110.2 149.2H107.4C105.4 149.2 104.4 147.533 104.4 144.2V142.4C104.4 139.067 105.4 137.4 107.4 137.4H109.3C111.5 137.4 113.367 137.067 114.9 136.4C116.433 135.667 117.6 134.7 118.4 133.5C119.2 132.233 119.6 130.767 119.6 129.1C119.6 127.433 119.3 126 118.7 124.8C118.1 123.6 117.2 122.667 116 122C114.8 121.333 113.3 121 111.5 121C108.967 121 106.933 121.267 105.4 121.8C103.933 122.267 102.767 122.767 101.9 123.3C101.033 123.833 100.3 124.1 99.7 124.1C99.0333 124.1 98.3 123.667 97.5 122.8C96.7667 121.867 96.1 120.8 95.5 119.6C94.9667 118.4 94.7 117.367 94.7 116.5C94.7 115.233 95.2333 114.167 96.3 113.3C97.3667 112.367 98.8 111.6 100.6 111C102.467 110.4 104.567 109.967 106.9 109.7C109.233 109.367 111.633 109.2 114.1 109.2C120.367 109.2 125.333 110.8 129 114C132.733 117.133 134.6 121.367 134.6 126.7C134.6 130.167 133.767 133.167 132.1 135.7C130.433 138.233 128.167 140.1 125.3 141.3V141.7C127.967 142.7 130.133 144.1 131.8 145.9C133.533 147.633 134.8 149.667 135.6 152C136.467 154.333 136.9 156.867 136.9 159.6C136.9 162.933 136.333 165.9 135.2 168.5C134.133 171.1 132.6 173.333 130.6 175.2C128.6 177 126.2 178.4 123.4 179.4C120.667 180.333 117.633 180.8 114.3 180.8ZM165.916 180.8C162.182 180.8 158.816 180.5 155.816 179.9C152.882 179.233 150.549 178.367 148.816 177.3C147.149 176.167 146.316 174.933 146.316 173.6C146.316 173 146.582 172.067 147.116 170.8C147.716 169.533 148.449 168.367 149.316 167.3C150.182 166.233 150.982 165.7 151.716 165.7C152.116 165.7 152.916 166 154.116 166.6C155.316 167.133 156.882 167.7 158.816 168.3C160.816 168.833 163.149 169.1 165.816 169.1C168.016 169.1 169.916 168.7 171.516 167.9C173.116 167.1 174.349 165.933 175.216 164.4C176.082 162.8 176.516 160.933 176.516 158.8C176.516 155.267 175.582 152.533 173.716 150.6C171.849 148.667 168.616 147.7 164.016 147.7H153.116C151.649 147.7 150.649 147.4 150.116 146.8C149.649 146.133 149.416 145.1 149.416 143.7L151.316 114C151.449 112.6 151.816 111.6 152.416 111C153.016 110.333 154.049 110 155.516 110H185.016C187.016 110 188.016 111.667 188.016 115V117.7C188.016 120.367 187.016 121.7 185.016 121.7H164.816L163.816 136H166.416C170.216 136 173.649 136.367 176.716 137.1C179.782 137.833 182.416 139.067 184.616 140.8C186.816 142.467 188.516 144.733 189.716 147.6C190.916 150.467 191.516 154.067 191.516 158.4C191.516 162.6 190.749 166.167 189.216 169.1C187.749 171.967 185.749 174.267 183.216 176C180.749 177.667 177.982 178.9 174.916 179.7C171.916 180.433 168.916 180.8 165.916 180.8ZM219.431 180.8C215.698 180.8 212.331 180.5 209.331 179.9C206.398 179.233 204.065 178.367 202.331 177.3C200.665 176.167 199.831 174.933 199.831 173.6C199.831 173 200.098 172.067 200.631 170.8C201.231 169.533 201.965 168.367 202.831 167.3C203.698 166.233 204.498 165.7 205.231 165.7C205.631 165.7 206.431 166 207.631 166.6C208.831 167.133 210.398 167.7 212.331 168.3C214.331 168.833 216.665 169.1 219.331 169.1C221.531 169.1 223.431 168.7 225.031 167.9C226.631 167.1 227.865 165.933 228.731 164.4C229.598 162.8 230.031 160.933 230.031 158.8C230.031 155.267 229.098 152.533 227.231 150.6C225.365 148.667 222.131 147.7 217.531 147.7H206.631C205.165 147.7 204.165 147.4 203.631 146.8C203.165 146.133 202.931 145.1 202.931 143.7L204.831 114C204.965 112.6 205.331 111.6 205.931 111C206.531 110.333 207.565 110 209.031 110H238.531C240.531 110 241.531 111.667 241.531 115V117.7C241.531 120.367 240.531 121.7 238.531 121.7H218.331L217.331 136H219.931C223.731 136 227.165 136.367 230.231 137.1C233.298 137.833 235.931 139.067 238.131 140.8C240.331 142.467 242.031 144.733 243.231 147.6C244.431 150.467 245.031 154.067 245.031 158.4C245.031 162.6 244.265 166.167 242.731 169.1C241.265 171.967 239.265 174.267 236.731 176C234.265 177.667 231.498 178.9 228.431 179.7C225.431 180.433 222.431 180.8 219.431 180.8ZM312.87 120.2C310.004 120.2 307.437 120.767 305.17 121.9C302.97 123.033 301.104 124.667 299.57 126.8C298.037 128.867 296.87 131.4 296.07 134.4C295.337 137.4 294.97 140.767 294.97 144.5C294.97 149.567 295.57 153.9 296.77 157.5C298.037 161.033 300.004 163.733 302.67 165.6C305.337 167.467 308.737 168.4 312.87 168.4C315.804 168.4 318.704 168.067 321.57 167.4C324.504 166.733 327.67 165.8 331.07 164.6V177.3C327.937 178.567 324.837 179.5 321.77 180.1C318.704 180.7 315.27 181 311.47 181C304.137 181 298.07 179.5 293.27 176.5C288.537 173.433 285.037 169.167 282.77 163.7C280.504 158.167 279.37 151.733 279.37 144.4C279.37 139 280.104 134.067 281.57 129.6C283.037 125.067 285.17 121.167 287.97 117.9C290.837 114.633 294.337 112.1 298.47 110.3C302.67 108.5 307.47 107.6 312.87 107.6C316.404 107.6 319.937 108.067 323.47 109C327.07 109.867 330.504 111.067 333.77 112.6L328.87 124.9C326.204 123.633 323.504 122.533 320.77 121.6C318.104 120.667 315.47 120.2 312.87 120.2ZM368.442 108.6C374.776 108.6 380.076 109.2 384.342 110.4C388.676 111.533 391.909 113.433 394.042 116.1C396.242 118.7 397.342 122.233 397.342 126.7C397.342 129.367 396.909 131.8 396.042 134C395.176 136.2 393.909 138 392.242 139.4C390.642 140.8 388.676 141.7 386.342 142.1V142.6C388.742 143.067 390.909 143.9 392.842 145.1C394.776 146.3 396.309 148.033 397.442 150.3C398.576 152.567 399.142 155.567 399.142 159.3C399.142 163.633 398.076 167.367 395.942 170.5C393.876 173.567 390.876 175.933 386.942 177.6C383.009 179.2 378.342 180 372.942 180H346.242V108.6H368.442ZM370.142 136.9C374.542 136.9 377.576 136.2 379.242 134.8C380.976 133.4 381.842 131.367 381.842 128.7C381.842 125.967 380.842 124 378.842 122.8C376.842 121.6 373.676 121 369.342 121H361.342V136.9H370.142ZM361.342 148.9V167.5H371.242C375.776 167.5 378.942 166.633 380.742 164.9C382.542 163.1 383.442 160.733 383.442 157.8C383.442 156 383.042 154.433 382.242 153.1C381.509 151.767 380.209 150.733 378.342 150C376.476 149.267 373.942 148.9 370.742 148.9H361.342Z" fill="white"/>
<path d="M267.777 284.173C209.065 284.173 150.353 282.854 89.5631 280.222C43.7606 278.24 6.81382 251.522 3.60949 218.066C-1.20162 167.649 -1.20162 116.521 3.60025 66.1103C6.81382 32.6543 43.7606 5.93007 89.5631 3.94774C211.152 -1.31591 324.421 -1.31591 445.992 3.94774C491.794 5.93007 528.741 32.6475 531.945 66.1035C536.756 116.521 536.756 167.649 531.954 218.059C528.741 251.515 491.794 278.24 445.992 280.222C385.202 282.854 326.489 284.173 267.777 284.173ZM444.911 266.718C481.47 265.135 510.965 243.809 513.532 217.119C518.287 167.338 518.287 116.846 513.522 67.0507C510.974 40.3671 481.47 19.0419 444.911 17.4587C324.052 12.2289 211.512 12.2289 90.6527 17.4587C54.0938 19.0419 24.5992 40.3671 22.0321 67.0575C17.2764 116.839 17.2764 167.331 22.0413 217.126C24.59 243.809 54.0938 265.135 90.6527 266.718C211.503 271.948 324.052 271.948 444.911 266.718Z" fill="url(#paint0_linear_1010_331)"/>
<defs>
<linearGradient id="paint0_linear_1010_331" x1="267.777" y1="-6.75548" x2="267.777" y2="296.013" gradientUnits="userSpaceOnUse">
<stop offset="0.9999" stop-color="white"/>
<stop offset="1" stop-color="#0032E3"/>
</linearGradient>
</defs>
</svg>
