<svg width="536" height="285" viewBox="0 0 536 285" fill="none" xmlns="http://www.w3.org/2000/svg">
<path d="M150.2 180.2C146.2 180.2 144.2 179.133 144.2 177V165.8H118C117.467 165.8 116.9 165.233 116.3 164.1C115.7 162.9 115.2 161.567 114.8 160.1C114.467 158.567 114.3 157.367 114.3 156.5C114.3 156.033 114.367 155.667 114.5 155.4L144.2 111.7C144.8 110.833 145.6 110.3 146.6 110.1C147.6 109.9 148.833 109.8 150.3 109.8H153C157 109.8 159 110.867 159 113V154.1H162.8C164.8 154.1 165.8 155.767 165.8 159.1V160.8C165.8 164.133 164.8 165.8 162.8 165.8H159V177C159 179.133 157 180.2 153 180.2H150.2ZM129.2 154.1H144.2V138.7C144.2 137.167 144.3 135.5 144.5 133.7C144.767 131.9 145.033 130.467 145.3 129.4L144.9 129.3L129.2 154.1ZM203.716 180.2C199.716 180.2 197.716 179.133 197.716 177V165.8H171.516C170.982 165.8 170.416 165.233 169.816 164.1C169.216 162.9 168.716 161.567 168.316 160.1C167.982 158.567 167.816 157.367 167.816 156.5C167.816 156.033 167.882 155.667 168.016 155.4L197.716 111.7C198.316 110.833 199.116 110.3 200.116 110.1C201.116 109.9 202.349 109.8 203.816 109.8H206.516C210.516 109.8 212.516 110.867 212.516 113V154.1H216.316C218.316 154.1 219.316 155.767 219.316 159.1V160.8C219.316 164.133 218.316 165.8 216.316 165.8H212.516V177C212.516 179.133 210.516 180.2 206.516 180.2H203.716ZM182.716 154.1H197.716V138.7C197.716 137.167 197.816 135.5 198.016 133.7C198.282 131.9 198.549 130.467 198.816 129.4L198.416 129.3L182.716 154.1ZM235.431 180.2C231.498 180.2 229.531 179.567 229.531 178.3C229.531 178.033 229.565 177.767 229.631 177.5C229.765 177.167 229.931 176.8 230.131 176.4L254.931 121.7H228.831C226.831 121.7 225.831 120.033 225.831 116.7V115C225.831 111.667 226.831 110 228.831 110H268.431C268.831 110 269.265 110.533 269.731 111.6C270.198 112.667 270.598 113.9 270.931 115.3C271.265 116.7 271.431 117.933 271.431 119C271.431 119.467 271.365 119.9 271.231 120.3L244.931 178.2C244.598 179 243.898 179.533 242.831 179.8C241.831 180.067 240.598 180.2 239.131 180.2H235.431ZM337.87 120.2C335.004 120.2 332.437 120.767 330.17 121.9C327.97 123.033 326.104 124.667 324.57 126.8C323.037 128.867 321.87 131.4 321.07 134.4C320.337 137.4 319.97 140.767 319.97 144.5C319.97 149.567 320.57 153.9 321.77 157.5C323.037 161.033 325.004 163.733 327.67 165.6C330.337 167.467 333.737 168.4 337.87 168.4C340.804 168.4 343.704 168.067 346.57 167.4C349.504 166.733 352.67 165.8 356.07 164.6V177.3C352.937 178.567 349.837 179.5 346.77 180.1C343.704 180.7 340.27 181 336.47 181C329.137 181 323.07 179.5 318.27 176.5C313.537 173.433 310.037 169.167 307.77 163.7C305.504 158.167 304.37 151.733 304.37 144.4C304.37 139 305.104 134.067 306.57 129.6C308.037 125.067 310.17 121.167 312.97 117.9C315.837 114.633 319.337 112.1 323.47 110.3C327.67 108.5 332.47 107.6 337.87 107.6C341.404 107.6 344.937 108.067 348.47 109C352.07 109.867 355.504 111.067 358.77 112.6L353.87 124.9C351.204 123.633 348.504 122.533 345.77 121.6C343.104 120.667 340.47 120.2 337.87 120.2ZM393.442 108.6C399.776 108.6 405.076 109.2 409.342 110.4C413.676 111.533 416.909 113.433 419.042 116.1C421.242 118.7 422.342 122.233 422.342 126.7C422.342 129.367 421.909 131.8 421.042 134C420.176 136.2 418.909 138 417.242 139.4C415.642 140.8 413.676 141.7 411.342 142.1V142.6C413.742 143.067 415.909 143.9 417.842 145.1C419.776 146.3 421.309 148.033 422.442 150.3C423.576 152.567 424.142 155.567 424.142 159.3C424.142 163.633 423.076 167.367 420.942 170.5C418.876 173.567 415.876 175.933 411.942 177.6C408.009 179.2 403.342 180 397.942 180H371.242V108.6H393.442ZM395.142 136.9C399.542 136.9 402.576 136.2 404.242 134.8C405.976 133.4 406.842 131.367 406.842 128.7C406.842 125.967 405.842 124 403.842 122.8C401.842 121.6 398.676 121 394.342 121H386.342V136.9H395.142ZM386.342 148.9V167.5H396.242C400.776 167.5 403.942 166.633 405.742 164.9C407.542 163.1 408.442 160.733 408.442 157.8C408.442 156 408.042 154.433 407.242 153.1C406.509 151.767 405.209 150.733 403.342 150C401.476 149.267 398.942 148.9 395.742 148.9H386.342Z" fill="white"/>
<path d="M267.777 284.173C209.065 284.173 150.353 282.854 89.5631 280.222C43.7606 278.24 6.81382 251.522 3.60949 218.066C-1.20162 167.649 -1.20162 116.521 3.60025 66.1103C6.81382 32.6543 43.7606 5.93007 89.5631 3.94774C211.152 -1.31591 324.421 -1.31591 445.992 3.94774C491.794 5.93007 528.741 32.6475 531.945 66.1035C536.756 116.521 536.756 167.649 531.954 218.059C528.741 251.515 491.794 278.24 445.992 280.222C385.202 282.854 326.489 284.173 267.777 284.173ZM444.911 266.718C481.47 265.135 510.965 243.809 513.532 217.119C518.287 167.338 518.287 116.846 513.522 67.0507C510.974 40.3671 481.47 19.0419 444.911 17.4587C324.052 12.2289 211.512 12.2289 90.6527 17.4587C54.0938 19.0419 24.5992 40.3671 22.0321 67.0575C17.2764 116.839 17.2764 167.331 22.0413 217.126C24.59 243.809 54.0938 265.135 90.6527 266.718C211.503 271.948 324.052 271.948 444.911 266.718Z" fill="white"/>
</svg>
