<svg width="536" height="285" viewBox="0 0 536 285" fill="none" xmlns="http://www.w3.org/2000/svg">
<path d="M153.2 180.2C149.2 180.2 147.2 179.133 147.2 177V165.8H121C120.467 165.8 119.9 165.233 119.3 164.1C118.7 162.9 118.2 161.567 117.8 160.1C117.467 158.567 117.3 157.367 117.3 156.5C117.3 156.033 117.367 155.667 117.5 155.4L147.2 111.7C147.8 110.833 148.6 110.3 149.6 110.1C150.6 109.9 151.833 109.8 153.3 109.8H156C160 109.8 162 110.867 162 113V154.1H165.8C167.8 154.1 168.8 155.767 168.8 159.1V160.8C168.8 164.133 167.8 165.8 165.8 165.8H162V177C162 179.133 160 180.2 156 180.2H153.2ZM132.2 154.1H147.2V138.7C147.2 137.167 147.3 135.5 147.5 133.7C147.767 131.9 148.033 130.467 148.3 129.4L147.9 129.3L132.2 154.1ZM206.716 180.2C202.716 180.2 200.716 179.133 200.716 177V165.8H174.516C173.982 165.8 173.416 165.233 172.816 164.1C172.216 162.9 171.716 161.567 171.316 160.1C170.982 158.567 170.816 157.367 170.816 156.5C170.816 156.033 170.882 155.667 171.016 155.4L200.716 111.7C201.316 110.833 202.116 110.3 203.116 110.1C204.116 109.9 205.349 109.8 206.816 109.8H209.516C213.516 109.8 215.516 110.867 215.516 113V154.1H219.316C221.316 154.1 222.316 155.767 222.316 159.1V160.8C222.316 164.133 221.316 165.8 219.316 165.8H215.516V177C215.516 179.133 213.516 180.2 209.516 180.2H206.716ZM185.716 154.1H200.716V138.7C200.716 137.167 200.816 135.5 201.016 133.7C201.282 131.9 201.549 130.467 201.816 129.4L201.416 129.3L185.716 154.1ZM251.131 180.8C245.465 180.8 240.831 179.833 237.231 177.9C233.698 175.967 231.098 173.4 229.431 170.2C227.765 167 226.931 163.567 226.931 159.9C226.931 156.767 227.398 154.033 228.331 151.7C229.265 149.367 230.498 147.433 232.031 145.9C233.565 144.3 235.231 143.167 237.031 142.5C234.898 141.033 233.131 139.2 231.731 137C230.331 134.733 229.631 131.767 229.631 128.1C229.631 124.833 230.431 121.767 232.031 118.9C233.631 116.033 236.065 113.7 239.331 111.9C242.598 110.1 246.698 109.2 251.631 109.2C255.965 109.2 259.665 110 262.731 111.6C265.865 113.2 268.231 115.333 269.831 118C271.498 120.6 272.331 123.467 272.331 126.6C272.331 130.8 271.498 134 269.831 136.2C268.231 138.4 266.165 140.167 263.631 141.5C265.698 142.433 267.565 143.7 269.231 145.3C270.898 146.9 272.198 148.967 273.131 151.5C274.131 154.033 274.631 157.133 274.631 160.8C274.631 163.067 274.198 165.4 273.331 167.8C272.465 170.133 271.098 172.3 269.231 174.3C267.431 176.233 265.031 177.8 262.031 179C259.031 180.2 255.398 180.8 251.131 180.8ZM250.931 169.1C252.865 169.1 254.465 168.633 255.731 167.7C257.065 166.767 258.031 165.6 258.631 164.2C259.298 162.8 259.631 161.4 259.631 160C259.631 158 259.298 156.333 258.631 155C257.965 153.667 257.065 152.567 255.931 151.7C254.798 150.767 253.465 149.967 251.931 149.3C250.465 148.633 248.931 148 247.331 147.4C245.665 148.667 244.331 150.2 243.331 152C242.331 153.8 241.831 156.133 241.831 159C241.831 162 242.631 164.433 244.231 166.3C245.831 168.167 248.065 169.1 250.931 169.1ZM252.531 136.8C254.331 135.6 255.665 134.233 256.531 132.7C257.465 131.1 257.931 129.4 257.931 127.6C257.931 125.467 257.231 123.833 255.831 122.7C254.498 121.5 252.931 120.9 251.131 120.9C249.331 120.9 247.731 121.467 246.331 122.6C244.931 123.733 244.231 125.4 244.231 127.6C244.231 129.267 244.598 130.667 245.331 131.8C246.065 132.933 247.065 133.9 248.331 134.7C249.598 135.433 250.998 136.133 252.531 136.8ZM340.87 120.2C338.004 120.2 335.437 120.767 333.17 121.9C330.97 123.033 329.104 124.667 327.57 126.8C326.037 128.867 324.87 131.4 324.07 134.4C323.337 137.4 322.97 140.767 322.97 144.5C322.97 149.567 323.57 153.9 324.77 157.5C326.037 161.033 328.004 163.733 330.67 165.6C333.337 167.467 336.737 168.4 340.87 168.4C343.804 168.4 346.704 168.067 349.57 167.4C352.504 166.733 355.67 165.8 359.07 164.6V177.3C355.937 178.567 352.837 179.5 349.77 180.1C346.704 180.7 343.27 181 339.47 181C332.137 181 326.07 179.5 321.27 176.5C316.537 173.433 313.037 169.167 310.77 163.7C308.504 158.167 307.37 151.733 307.37 144.4C307.37 139 308.104 134.067 309.57 129.6C311.037 125.067 313.17 121.167 315.97 117.9C318.837 114.633 322.337 112.1 326.47 110.3C330.67 108.5 335.47 107.6 340.87 107.6C344.404 107.6 347.937 108.067 351.47 109C355.07 109.867 358.504 111.067 361.77 112.6L356.87 124.9C354.204 123.633 351.504 122.533 348.77 121.6C346.104 120.667 343.47 120.2 340.87 120.2ZM396.442 108.6C402.776 108.6 408.076 109.2 412.342 110.4C416.676 111.533 419.909 113.433 422.042 116.1C424.242 118.7 425.342 122.233 425.342 126.7C425.342 129.367 424.909 131.8 424.042 134C423.176 136.2 421.909 138 420.242 139.4C418.642 140.8 416.676 141.7 414.342 142.1V142.6C416.742 143.067 418.909 143.9 420.842 145.1C422.776 146.3 424.309 148.033 425.442 150.3C426.576 152.567 427.142 155.567 427.142 159.3C427.142 163.633 426.076 167.367 423.942 170.5C421.876 173.567 418.876 175.933 414.942 177.6C411.009 179.2 406.342 180 400.942 180H374.242V108.6H396.442ZM398.142 136.9C402.542 136.9 405.576 136.2 407.242 134.8C408.976 133.4 409.842 131.367 409.842 128.7C409.842 125.967 408.842 124 406.842 122.8C404.842 121.6 401.676 121 397.342 121H389.342V136.9H398.142ZM389.342 148.9V167.5H399.242C403.776 167.5 406.942 166.633 408.742 164.9C410.542 163.1 411.442 160.733 411.442 157.8C411.442 156 411.042 154.433 410.242 153.1C409.509 151.767 408.209 150.733 406.342 150C404.476 149.267 401.942 148.9 398.742 148.9H389.342Z" fill="white"/>
<path d="M267.777 284.173C209.065 284.173 150.353 282.854 89.5631 280.222C43.7606 278.24 6.81382 251.522 3.60949 218.066C-1.20162 167.649 -1.20162 116.521 3.60025 66.1103C6.81382 32.6543 43.7606 5.93007 89.5631 3.94774C211.152 -1.31591 324.421 -1.31591 445.992 3.94774C491.794 5.93007 528.741 32.6475 531.945 66.1035C536.756 116.521 536.756 167.649 531.954 218.059C528.741 251.515 491.794 278.24 445.992 280.222C385.202 282.854 326.489 284.173 267.777 284.173ZM444.911 266.718C481.47 265.135 510.965 243.809 513.532 217.119C518.287 167.338 518.287 116.846 513.522 67.0507C510.974 40.3671 481.47 19.0419 444.911 17.4587C324.052 12.2289 211.512 12.2289 90.6527 17.4587C54.0938 19.0419 24.5992 40.3671 22.0321 67.0575C17.2764 116.839 17.2764 167.331 22.0413 217.126C24.59 243.809 54.0938 265.135 90.6527 266.718C211.503 271.948 324.052 271.948 444.911 266.718Z" fill="white"/>
</svg>
