<svg width="24" height="24" viewBox="0 0 24 24" fill="none" xmlns="http://www.w3.org/2000/svg">
<path d="M2 12.5001V11.5001C2 11.224 2.22386 11.0001 2.5 11.0001H18.67L14.22 6.5601C14.1253 6.46621 14.0721 6.33842 14.0721 6.2051C14.0721 6.07178 14.1253 5.94398 14.22 5.8501L14.93 5.1501C15.0239 5.05544 15.1517 5.0022 15.285 5.0022C15.4183 5.0022 15.5461 5.05544 15.64 5.1501L21.78 11.2801C21.9207 11.4206 21.9998 11.6113 22 11.8101V12.1901C21.9977 12.3885 21.9189 12.5784 21.78 12.7201L15.64 18.8501C15.5461 18.9448 15.4183 18.998 15.285 18.998C15.1517 18.998 15.0239 18.9448 14.93 18.8501L14.22 18.1401C14.1259 18.0479 14.0729 17.9218 14.0729 17.7901C14.0729 17.6584 14.1259 17.5323 14.22 17.4401L18.67 13.0001H2.5C2.22386 13.0001 2 12.7762 2 12.5001Z" fill="current"/>
</svg>
