<svg width="45" height="24" viewBox="0 0 45 24" fill="none" xmlns="http://www.w3.org/2000/svg">
<g clip-path="url(#clip0_221_22)">
<path d="M3.75 12.5001V11.5001C3.75 11.224 4.16973 11.0001 4.6875 11.0001H35.0063L26.6625 6.5601C26.485 6.46621 26.3852 6.33842 26.3852 6.2051C26.3852 6.07178 26.485 5.94398 26.6625 5.8501L27.9938 5.1501C28.1698 5.05544 28.4094 5.0022 28.6594 5.0022C28.9094 5.0022 29.149 5.05544 29.325 5.1501L40.8375 11.2801C41.1013 11.4206 41.2497 11.6113 41.25 11.8101V12.1901C41.2457 12.3885 41.0979 12.5784 40.8375 12.7201L29.325 18.8501C29.149 18.9448 28.9094 18.998 28.6594 18.998C28.4094 18.998 28.1698 18.9448 27.9938 18.8501L26.6625 18.1401C26.4861 18.0479 26.3867 17.9218 26.3867 17.7901C26.3867 17.6584 26.4861 17.5323 26.6625 17.4401L35.0063 13.0001H4.6875C4.16973 13.0001 3.75 12.7762 3.75 12.5001Z" fill="#0C1C2A"/>
</g>
<defs>
<clipPath id="clip0_221_22">
<rect width="45" height="24" fill="white"/>
</clipPath>
</defs>
</svg>
