<svg width="45" height="24" viewBox="0 0 45 24" fill="none" xmlns="http://www.w3.org/2000/svg">
<g clip-path="url(#clip0_220_13)">
<path d="M41.25 12.5001V11.5001C41.25 11.224 40.8303 11.0001 40.3125 11.0001H9.99375L18.3375 6.5601C18.515 6.46621 18.6148 6.33842 18.6148 6.2051C18.6148 6.07178 18.515 5.94398 18.3375 5.8501L17.0062 5.1501C16.8302 5.05544 16.5906 5.0022 16.3406 5.0022C16.0906 5.0022 15.851 5.05544 15.675 5.1501L4.16249 11.2801C3.8987 11.4206 3.75032 11.6113 3.75 11.8101V12.1901C3.75432 12.3885 3.90209 12.5784 4.16249 12.7201L15.675 18.8501C15.851 18.9448 16.0906 18.998 16.3406 18.998C16.5906 18.998 16.8302 18.9448 17.0062 18.8501L18.3375 18.1401C18.5139 18.0479 18.6133 17.9218 18.6133 17.7901C18.6133 17.6584 18.5139 17.5323 18.3375 17.4401L9.99375 13.0001H40.3125C40.8303 13.0001 41.25 12.7762 41.25 12.5001Z" fill="#0C1C2A"/>
</g>
<defs>
<clipPath id="clip0_220_13">
<rect width="45" height="24" fill="white" transform="matrix(-1 0 0 1 45 0)"/>
</clipPath>
</defs>
</svg>
