<svg width="28" height="28" viewBox="0 0 28 28" fill="none" xmlns="http://www.w3.org/2000/svg">
<path d="M9.83037 2.03472L3.05036 7.31784C1.91826 8.19836 1 10.0726 1 11.4941V20.815C1 23.7333 3.37741 26.1233 6.2957 26.1233H20.862C23.7803 26.1233 26.1577 23.7333 26.1577 20.8276V11.6702C26.1577 10.1481 25.1389 8.19836 23.8935 7.33042L16.1198 1.88377C14.3588 0.651043 11.5285 0.713937 9.83037 2.03472Z" stroke="current" stroke-width="1.88683" stroke-linecap="round" stroke-linejoin="round"/>
<g opacity="0.4">
<path d="M11.6921 21.1042H15.4658C17.5413 21.1042 19.2394 19.406 19.2394 17.3305V13.5569C19.2394 11.4814 17.5413 9.7832 15.4658 9.7832H11.6921C9.6166 9.7832 7.91846 11.4814 7.91846 13.5569V17.3305C7.91846 19.406 9.6166 21.1042 11.6921 21.1042Z" stroke="current" stroke-width="1.88683" stroke-linecap="round" stroke-linejoin="round"/>
</g>
</svg>
