<svg width="24" height="24" viewBox="0 0 24 24" fill="none" xmlns="http://www.w3.org/2000/svg">
<path d="M20 3H18.59C18.3277 3.0011 18.0763 3.10526 17.89 3.29L10.71 10.47C10.0147 10.1592 9.26157 9.99907 8.5 10C5.46243 10 3 12.4624 3 15.5C3 18.5376 5.46243 21 8.5 21C11.5376 21 14 18.5376 14 15.5C13.9983 14.743 13.8418 13.9943 13.54 13.3L14.42 12.42C14.6047 12.2337 14.7089 11.9823 14.71 11.72V11C14.7102 10.8012 14.7893 10.6105 14.93 10.47L15.19 10.21C15.3305 10.0693 15.5212 9.99017 15.72 9.99H17.5C17.7761 9.99 18 9.76614 18 9.49V7.73C18.0002 7.53115 18.0793 7.34052 18.22 7.2H18.27C18.3548 7.08369 18.4864 7.01056 18.63 7H20.5C20.7761 7 21 6.77614 21 6.5V4C21 3.44772 20.5523 3 20 3ZM7.44 18.56C6.33543 18.56 5.44 17.6646 5.44 16.56C5.44 15.4554 6.33543 14.56 7.44 14.56C8.54457 14.56 9.44 15.4554 9.44 16.56C9.44 17.0904 9.22929 17.5991 8.85421 17.9742C8.47914 18.3493 7.97043 18.56 7.44 18.56Z" fill="current"/>
</svg>
