<svg width="422" height="469" viewBox="0 0 422 469" fill="none" xmlns="http://www.w3.org/2000/svg">
<path d="M264.396 301.274C270.246 270.454 291.486 240.974 291.486 240.974C260.576 194.824 210.616 190.914 210.616 190.914C210.616 190.914 160.646 194.814 129.746 240.974C129.746 240.974 147.216 262.094 154.826 289.364L200.896 311.734L210.696 223.364L213.786 326.524H197.036L175.256 312.864L156.846 301.314L151.176 297.754L64.2257 242.004L108.116 404.824L197.046 468.814H218.736L223.546 363.124L229.546 464.664L313.136 404.824L357.026 242.004L264.396 301.274ZM197.036 449.954L134.226 404.904L191.486 433.264L197.036 339.764V449.954ZM232.356 250.244C227.236 250.244 223.086 243.414 223.086 234.994C223.086 226.574 227.236 219.744 232.356 219.744C237.476 219.744 241.626 226.574 241.626 234.994C241.626 243.424 237.476 250.244 232.356 250.244ZM259.426 255.194C256.166 255.194 253.526 250.914 253.526 245.644C253.526 240.374 256.166 236.094 259.426 236.094C262.686 236.094 265.326 240.374 265.326 245.644C265.326 250.914 262.686 255.194 259.426 255.194Z" fill="#001E52" fill-opacity="0.36"/>
<path d="M154.316 166.823C162.456 164.933 184.426 160.693 209.026 163.133C209.026 163.133 179.806 164.793 158.056 176.223L156.366 201.763C186.286 179.193 210.626 177.123 210.626 177.123C210.626 177.123 236.556 180.213 264.886 201.763L263.066 174.213C263.066 174.213 270.556 157.933 277.486 153.613C277.486 153.613 262.926 147.273 238.916 143.993C238.576 142.503 237.766 138.183 238.736 134.233C239.586 130.763 237.476 127.303 233.936 126.843C228.356 126.123 220.916 125.343 213.686 125.153V111.073H239.056V91.0835H213.686H210.626H207.566V125.143C200.246 125.323 192.856 126.093 187.316 126.813C183.766 127.273 181.656 130.753 182.506 134.223C182.796 135.393 182.926 136.483 182.966 137.523L210.616 142.063C170.176 142.063 143.756 153.603 143.756 153.603C147.556 155.973 151.506 161.923 154.316 166.823Z" fill="#001E52" fill-opacity="0.36"/>
<path d="M416.636 198.434C410.576 192.134 400.496 191.634 393.536 197.184C392.666 197.874 391.376 198.374 390.286 198.384C381.296 198.454 372.306 198.404 363.316 198.364C362.546 198.364 361.786 198.234 360.866 198.154C358.036 165.994 346.106 137.684 325.536 112.854C333.016 105.414 340.296 98.1335 347.656 90.9335C348.316 90.2935 349.476 90.0235 350.446 89.8735C356.486 88.9435 361.126 85.9035 363.696 80.3935C366.866 73.6135 366.076 67.0935 360.986 61.4335C356.426 56.3735 350.636 54.6735 344.136 56.5335C336.756 58.6435 332.746 63.8535 331.666 71.4135C331.546 72.2235 331.326 73.2035 330.796 73.7435C323.566 81.1935 316.276 88.5835 308.906 96.0735C283.696 74.7335 254.986 62.6735 222.546 59.7235C222.446 59.0735 222.356 58.7435 222.356 58.4035C222.326 49.0635 222.276 39.7235 222.346 30.3835C222.356 29.4635 222.936 28.4235 223.536 27.6535C227.056 23.1335 228.076 18.0535 226.736 12.5935C225.026 5.65352 219.656 1.08352 212.506 0.143524C205.696 -0.756476 198.996 2.63352 195.546 8.70352C192.216 14.5835 192.886 22.2735 197.046 27.6735C197.776 28.6235 198.356 29.9735 198.376 31.1535C198.466 39.8835 198.356 48.6135 198.406 57.3335C198.416 59.0435 197.996 59.8935 196.156 59.9735C194.246 60.0635 192.346 60.4335 190.446 60.6735C166.016 63.8435 143.806 72.6735 123.686 86.8235C119.796 89.5635 116.056 92.5235 111.906 95.6335C105.186 88.7835 98.5557 81.9635 91.8357 75.2435C90.3957 73.8035 89.6457 72.3135 89.3857 70.2735C88.1657 60.7235 77.9757 53.8535 68.7757 56.2535C60.7857 58.3335 55.3357 65.6835 55.8457 73.7035C56.3957 82.3035 62.4157 88.6935 70.9057 89.9135C72.1557 90.0935 73.5257 90.8035 74.4557 91.6735C78.0157 95.0235 81.4257 98.5335 84.8657 101.994C88.3457 105.504 91.8057 109.034 95.3057 112.584C74.4557 137.534 62.5957 165.974 59.7257 197.994C59.2157 198.164 58.9757 198.314 58.7357 198.324C49.2257 198.374 39.7057 198.444 30.1957 198.394C29.3657 198.394 28.4257 197.774 27.7357 197.204C20.8357 191.534 10.7157 192.154 4.48572 198.664C-1.41428 204.834 -1.50428 215.234 4.27572 221.574C10.4457 228.334 20.3857 229.194 27.4857 223.714C28.4857 222.944 29.9557 222.444 31.2257 222.404C36.2857 222.264 41.3457 222.364 46.4157 222.374C50.7657 222.384 55.1057 222.374 59.6957 222.374C59.8157 223.704 59.9757 225.024 60.1257 226.344L95.3657 246.744C92.4057 237.384 90.5457 227.514 89.8557 217.124C91.1057 217.064 92.0357 216.984 92.9757 216.984C104.026 216.994 115.066 216.984 126.116 216.984C130.436 212.604 135.556 208.104 141.556 203.964L141.586 203.514C124.556 203.514 107.306 203.514 89.8657 203.514C91.7257 175.274 102.096 150.904 120.616 129.844C125.536 134.754 130.386 139.604 135.266 144.484C139.346 142.374 143.956 140.184 148.746 138.194C142.696 132.144 136.666 126.114 130.566 119.994C149.856 103.294 171.886 93.4935 196.996 90.6035V80.9535H248.716V96.1235C263.866 101.214 277.716 109.234 290.296 120.244C284.286 126.254 278.336 132.194 272.376 138.154C277.226 140.154 281.886 142.374 286.016 144.514C290.716 139.824 295.396 135.134 300.096 130.434C317.166 147.844 329.956 177.714 330.526 203.564C329.616 203.604 328.696 203.684 327.776 203.684C311.746 203.684 295.706 203.694 279.676 203.704L279.696 203.964C285.706 208.114 290.836 212.614 295.156 216.994C300.226 216.994 305.296 216.994 310.376 216.994C316.136 216.994 321.886 216.974 327.646 216.964C328.586 216.964 329.516 216.964 330.786 216.964C330.076 227.584 328.166 237.644 325.066 247.214L360.436 226.734C360.596 225.334 360.766 223.934 360.886 222.524C361.996 222.474 362.936 222.384 363.876 222.384C372.426 222.354 380.986 222.264 389.536 222.384C391.046 222.404 392.786 222.964 394.006 223.854C401.256 229.064 411.166 228.164 417.036 221.594C422.796 215.134 422.626 204.664 416.636 198.434Z" fill="#001E52" fill-opacity="0.36"/>
</svg>
