<svg width="24" height="24" viewBox="0 0 24 24" fill="none" xmlns="http://www.w3.org/2000/svg">
<path d="M4.5 17.0001H19.5C19.7761 17.0001 20 16.7762 20 16.5001V14.5001C20 14.224 19.7761 14.0001 19.5 14.0001H18V7.0001H19.5C19.7761 7.0001 20 6.77624 20 6.5001V4.6701C19.998 4.2664 19.7534 3.9035 19.38 3.7501L13 1.1501C12.7526 1.04845 12.4874 0.997447 12.22 1.0001H11.78C11.5193 1.00009 11.2611 1.05105 11.02 1.1501L4.62 3.7501C4.24657 3.9035 4.00202 4.2664 4 4.6701V6.5001C4 6.77624 4.22386 7.0001 4.5 7.0001H6V14.0001H4.5C4.22386 14.0001 4 14.224 4 14.5001V16.5001C4 16.7762 4.22386 17.0001 4.5 17.0001ZM13 7.0001H16V14.0001H13V7.0001ZM8 7.0001H11V14.0001H8V7.0001ZM20.5 19.0001H3.5C3.22386 19.0001 3 19.224 3 19.5001V20.5001C3 20.7762 3.22386 21.0001 3.5 21.0001H20.5C20.7761 21.0001 21 20.7762 21 20.5001V19.5001C21 19.224 20.7761 19.0001 20.5 19.0001Z" fill="current"/>
</svg>
