<svg width="91" height="101" viewBox="0 0 91 101" fill="none" xmlns="http://www.w3.org/2000/svg">
<path d="M49.6734 100.02L69.3605 85.6049L78.2738 50.387L81.7892 50.3466C82.6519 50.844 83.6859 51.1695 84.7522 51.1695C88.0035 51.1695 90.64 48.5247 90.64 45.2632C90.64 42.0016 88.0035 39.3568 84.7522 39.3568C83.6154 39.3568 82.5612 39.6965 81.6602 40.2566L78.163 40.2404C77.3345 34.793 75.1778 29.7844 72.0353 25.5564L74.3312 23.0409C77.2418 22.683 79.4973 20.1959 79.4973 17.1791C79.4973 13.9175 76.8608 11.2727 73.6096 11.2727C70.5094 11.2727 67.9334 13.6506 67.7056 16.7039L65.4461 18.9039C61.0438 15.5715 55.7809 13.321 50.0523 12.5506L50.0705 9.81478C50.9775 8.77545 51.5278 7.41462 51.5278 5.9264C51.5278 2.66485 48.8913 0.0200195 45.64 0.0200195C42.3887 0.0200195 39.7522 2.66485 39.7522 5.9264C39.7522 7.41664 40.3025 8.77748 41.2096 9.81478L41.2277 12.5506C35.4971 13.321 30.2362 15.5715 25.834 18.9039L23.5744 16.7039C23.3466 13.6526 20.7706 11.2727 17.6705 11.2727C14.4192 11.2727 11.7827 13.9175 11.7827 17.1791C11.7827 20.1959 14.0362 22.683 16.9489 23.0409L19.2447 25.5564C16.1023 29.7844 13.9455 34.793 13.1171 40.2404L9.61986 40.2566C8.72087 39.6985 7.66465 39.3568 6.52781 39.3568C3.27652 39.3568 0.640015 42.0016 0.640015 45.2632C0.640015 48.5247 3.27652 51.1695 6.52781 51.1695C7.59612 51.1695 8.62815 50.844 9.49086 50.3466L13.0062 50.387L21.9195 85.6049L41.6066 100.02H49.6734Z" fill="white"/>
<path d="M56.4783 63.5667C57.6575 57.3348 61.9388 51.3738 61.9388 51.3738C55.7083 42.0421 45.638 41.2515 45.638 41.2515C45.638 41.2515 35.5657 42.0401 29.3372 51.3738C29.3372 51.3738 32.8586 55.6443 34.3925 61.1585L43.6788 65.6818L45.6541 47.813L46.277 68.6724H42.9007L38.5106 65.9102L34.7997 63.5748L33.6568 62.8549L16.1305 51.5821L24.9773 84.5049L42.9027 97.444H47.2747L48.2443 76.073L49.4537 96.6048L66.3027 84.5049L75.1495 51.5821L56.4783 63.5667ZM42.9007 93.6304L30.2402 84.5211L41.782 90.2556L42.9007 71.3495V93.6304ZM50.0201 53.2482C48.9881 53.2482 48.1515 51.8672 48.1515 50.1646C48.1515 48.4621 48.9881 47.081 50.0201 47.081C51.0521 47.081 51.8886 48.4621 51.8886 50.1646C51.8886 51.8692 51.0521 53.2482 50.0201 53.2482ZM55.4765 54.2491C54.8194 54.2491 54.2873 53.3837 54.2873 52.3181C54.2873 51.2525 54.8194 50.387 55.4765 50.387C56.1336 50.387 56.6658 51.2525 56.6658 52.3181C56.6658 53.3837 56.1336 54.2491 55.4765 54.2491Z" fill="current"/>
<path d="M34.2897 36.3804C35.9304 35.9982 40.3589 35.1408 45.3175 35.6342C45.3175 35.6342 39.4277 35.9699 35.0436 38.2811L34.7029 43.4454C40.7338 38.8816 45.64 38.4631 45.64 38.4631C45.64 38.4631 50.8666 39.0879 56.577 43.4454L56.2102 37.8746C56.2102 37.8746 57.7199 34.5828 59.1168 33.7092C59.1168 33.7092 56.182 32.4273 51.3423 31.764C51.2738 31.4628 51.1105 30.5892 51.306 29.7905C51.4774 29.0889 51.0521 28.3893 50.3385 28.2962C49.2138 28.1507 47.7141 27.9929 46.2568 27.9545V25.1075H51.3705V21.0654H46.2568H45.64H45.0232V27.9525C43.5477 27.9889 42.0581 28.1446 40.9414 28.2902C40.2259 28.3832 39.8006 29.0869 39.9719 29.7885C40.0303 30.0251 40.0565 30.2455 40.0646 30.4558L45.638 31.3738C37.4866 31.3738 32.1611 33.7072 32.1611 33.7072C32.9271 34.1864 33.7233 35.3896 34.2897 36.3804Z" fill="current"/>
<path d="M87.165 42.772C85.9435 41.4981 83.9117 41.397 82.5088 42.5192C82.3334 42.6588 82.0734 42.7599 81.8537 42.7619C80.0416 42.776 78.2295 42.7659 76.4174 42.7579C76.2622 42.7579 76.109 42.7316 75.9236 42.7154C75.3531 36.2125 72.9484 30.4881 68.8022 25.4674C70.3099 23.963 71.7773 22.4909 73.2609 21.0351C73.3939 20.9057 73.6277 20.8511 73.8232 20.8207C75.0407 20.6327 75.976 20.018 76.494 18.9038C77.133 17.5329 76.9737 16.2145 75.9478 15.0701C75.0286 14.0469 73.8615 13.7032 72.5513 14.0793C71.0638 14.5059 70.2555 15.5594 70.0378 17.0881C70.0136 17.2518 69.9693 17.45 69.8624 17.5592C68.4051 19.0656 66.9357 20.5599 65.4501 22.0744C60.3686 17.7594 54.5816 15.3208 48.0427 14.7243C48.0226 14.5929 48.0044 14.5261 48.0044 14.4574C47.9984 12.5688 47.9883 10.6802 48.0024 8.79162C48.0044 8.60559 48.1213 8.3953 48.2423 8.2396C48.9518 7.32564 49.1574 6.29844 48.8873 5.19441C48.5426 3.79111 47.4602 2.86704 46.019 2.67697C44.6463 2.49499 43.2958 3.18046 42.6004 4.40784C41.9292 5.5968 42.0642 7.15175 42.9028 8.24365C43.0499 8.43574 43.1668 8.70872 43.1708 8.94732C43.189 10.7126 43.1668 12.4778 43.1769 14.241C43.1789 14.5868 43.0942 14.7587 42.7234 14.7748C42.3384 14.793 41.9554 14.8679 41.5724 14.9164C36.6481 15.5574 32.1713 17.3428 28.1157 20.204C27.3316 20.7581 26.5778 21.3566 25.7413 21.9854C24.3867 20.6003 23.0503 19.2213 21.6958 17.8625C21.4056 17.5713 21.2544 17.27 21.202 16.8575C20.9561 14.9265 18.9021 13.5373 17.0477 14.0226C15.4371 14.4432 14.3386 15.9294 14.4414 17.5511C14.5523 19.2901 15.7657 20.5821 17.477 20.8288C17.729 20.8652 18.0051 21.0088 18.1926 21.1847C18.9101 21.8621 19.5975 22.5718 20.2909 23.2714C20.9923 23.9812 21.6898 24.695 22.3953 25.4128C18.1926 30.4578 15.802 36.2085 15.2235 42.683C15.1207 42.7174 15.0723 42.7477 15.0239 42.7498C13.107 42.7599 11.1881 42.774 9.27118 42.7639C9.10387 42.7639 8.9144 42.6386 8.77532 42.5233C7.3845 41.3768 5.34464 41.5022 4.08887 42.8185C2.89962 44.0661 2.88148 46.169 4.04654 47.451C5.29021 48.8179 7.2938 48.9918 8.72493 47.8837C8.92649 47.728 9.2228 47.6269 9.47879 47.6188C10.4987 47.5905 11.5187 47.6107 12.5406 47.6128C13.4174 47.6148 14.2922 47.6128 15.2174 47.6128C15.2416 47.8817 15.2739 48.1486 15.3041 48.4155L22.4073 52.5405C21.8107 50.6479 21.4358 48.6521 21.2967 46.5512C21.5487 46.5391 21.7361 46.5229 21.9256 46.5229C24.1529 46.5249 26.3782 46.5229 28.6056 46.5229C29.4763 45.6372 30.5084 44.7273 31.7178 43.8902L31.7238 43.7992C28.2911 43.7992 24.8141 43.7992 21.2987 43.7992C21.6736 38.089 23.7639 33.1612 27.4969 28.9028C28.4886 29.8957 29.4662 30.8763 30.4499 31.8631C31.2723 31.4364 32.2015 30.9936 33.167 30.5912C31.9475 29.3679 30.7321 28.1486 29.5025 26.9111C33.3908 23.5343 37.8313 21.5527 42.8927 20.9683V19.0171H53.3178V22.0845C56.3715 23.1137 59.1632 24.7354 61.6989 26.9617C60.4875 28.1769 59.2882 29.378 58.0869 30.5831C59.0645 30.9876 60.0038 31.4364 60.8362 31.8692C61.7836 30.9208 62.7269 29.9725 63.6743 29.0221C67.1151 32.5425 69.6931 38.5823 69.808 43.8093C69.6246 43.8174 69.4391 43.8336 69.2537 43.8336C66.0226 43.8336 62.7894 43.8356 59.5583 43.8376L59.5623 43.8902C60.7737 44.7293 61.8078 45.6393 62.6786 46.5249C63.7005 46.5249 64.7225 46.5249 65.7464 46.5249C66.9075 46.5249 68.0665 46.5209 69.2275 46.5188C69.417 46.5188 69.6044 46.5188 69.8604 46.5188C69.7173 48.6663 69.3323 50.7004 68.7075 52.6355L75.8369 48.4944C75.8692 48.2113 75.9034 47.9282 75.9276 47.6431C76.1513 47.633 76.3408 47.6148 76.5303 47.6148C78.2537 47.6087 79.9791 47.5905 81.7025 47.6148C82.0069 47.6188 82.3576 47.7321 82.6035 47.912C84.0649 48.9655 86.0624 48.7835 87.2456 47.455C88.4067 46.1488 88.3724 44.0317 87.165 42.772Z" fill="current"/>
</svg>
