<svg width="32" height="32" viewBox="0 0 32 32" fill="none" xmlns="http://www.w3.org/2000/svg">
<path d="M27.8333 25.947L22.5 20.6072C22.3272 20.4302 22.1349 20.2734 21.9267 20.14L20.5933 19.2189C23.3359 15.8213 23.3614 10.9746 20.6547 7.54833C17.948 4.12202 13.2315 3.03046 9.29746 4.91989C5.36347 6.80931 3.26191 11.1755 4.23697 15.4335C5.21203 19.6915 9.00348 22.7049 13.3667 22.6897C15.4841 22.6904 17.5387 21.9701 19.1933 20.6473L20.1933 21.9822C20.3119 22.1541 20.4458 22.315 20.5933 22.4628L25.9267 27.8026C26.0518 27.9289 26.2222 28 26.4 28C26.5778 28 26.7482 27.9289 26.8733 27.8026L27.8067 26.8681C28.0598 26.6174 28.0715 26.2119 27.8333 25.947ZM13.3667 20.0199C9.68476 20.0199 6.7 17.0315 6.7 13.3452C6.7 9.65882 9.68476 6.67045 13.3667 6.67045C17.0486 6.67045 20.0333 9.65882 20.0333 13.3452C20.0333 15.1154 19.331 16.8131 18.0807 18.0649C16.8305 19.3166 15.1348 20.0199 13.3667 20.0199Z" fill="#C80000"/>
</svg>
