<svg width="36" height="18" viewBox="0 0 36 18" fill="none" xmlns="http://www.w3.org/2000/svg">
<mask id="path-1-inside-1_599_43" fill="white">
<path d="M35.8091 16.256C35.7655 16.1736 35.7248 16.1054 35.6871 16.0506C35.0625 15.0648 33.8689 13.8548 32.107 12.4202L32.0698 12.3873L32.0512 12.3712L32.0323 12.3547H32.0134C31.2138 11.6867 30.7074 11.2375 30.4954 11.0076C30.1074 10.5695 30.0205 10.1261 30.2325 9.67683C30.3823 9.33738 30.9451 8.62052 31.9195 7.52526C32.432 6.94481 32.8379 6.47959 33.1377 6.1291C35.2996 3.6103 36.2369 2.00075 35.9494 1.29983L35.8377 1.13603C35.7627 1.03742 35.569 0.947204 35.257 0.864932C34.9442 0.782832 34.5445 0.769255 34.057 0.823969L28.659 0.856647C28.5715 0.829492 28.4466 0.832023 28.284 0.864932C28.1215 0.897841 28.0402 0.914353 28.0402 0.914353L27.9463 0.955489L27.8717 1.00491C27.8092 1.03759 27.7404 1.09507 27.6654 1.17722C27.5908 1.25909 27.5283 1.35517 27.4784 1.46466C26.8907 2.7897 26.2225 4.02166 25.4726 5.16047C25.0102 5.83954 24.5856 6.42804 24.1978 6.92634C23.8105 7.42446 23.4856 7.79147 23.2234 8.02672C22.9608 8.2622 22.7238 8.45085 22.511 8.59336C22.2985 8.73593 22.1363 8.79617 22.0239 8.77413C21.9113 8.7521 21.8053 8.73023 21.7049 8.70837C21.5301 8.60976 21.3895 8.47565 21.2835 8.30593C21.177 8.1362 21.1053 7.92258 21.0678 7.66524C21.0305 7.40772 21.0085 7.18622 21.0022 6.99998C20.9963 6.81398 20.999 6.55088 21.0117 6.21143C21.0247 5.87181 21.0305 5.64203 21.0305 5.52155C21.0305 5.10536 21.0398 4.65366 21.0584 4.16636C21.0773 3.67905 21.0926 3.29295 21.1054 3.0085C21.1181 2.72377 21.124 2.42253 21.124 2.10494C21.124 1.78736 21.1019 1.5383 21.0584 1.35753C21.0153 1.17699 20.9492 1.00175 20.8621 0.83185C20.7744 0.662128 20.6461 0.530837 20.4778 0.437633C20.3091 0.344545 20.0995 0.270672 19.8499 0.215785C19.1876 0.084437 18.3442 0.0133836 17.3193 0.00233722C14.9952 -0.0195254 13.5019 0.111995 12.8396 0.396727C12.5772 0.517029 12.3397 0.681401 12.1274 0.889326C11.9024 1.13033 11.871 1.26185 12.0335 1.28349C12.7833 1.38193 13.3142 1.61741 13.6266 1.98971L13.7392 2.18699C13.8268 2.32932 13.9142 2.58132 14.0017 2.94263C14.0891 3.30394 14.1455 3.70362 14.1703 4.14145C14.2327 4.94098 14.2327 5.6254 14.1703 6.19475C14.1077 6.76433 14.0487 7.20773 13.9923 7.52532C13.9359 7.8429 13.8516 8.10025 13.7392 8.2973C13.6266 8.49441 13.5517 8.61488 13.5141 8.65861C13.4766 8.70233 13.4454 8.72989 13.4206 8.74071C13.2582 8.79525 13.0892 8.82304 12.9144 8.82304C12.7393 8.82304 12.527 8.74629 12.2771 8.5929C12.0273 8.43952 11.7681 8.22883 11.4994 7.9605C11.2307 7.69211 10.9276 7.31705 10.5901 6.83526C10.2529 6.35348 9.90297 5.78408 9.54058 5.12705L9.24075 4.65056C9.05332 4.34402 8.79728 3.89768 8.47238 3.31193C8.14728 2.72596 7.85993 2.15914 7.61013 1.6116C7.51027 1.38164 7.36026 1.20656 7.16036 1.08609L7.06654 1.03667C7.00418 0.992943 6.90406 0.946514 6.76672 0.897035C6.62918 0.847614 6.48567 0.812174 6.33559 0.790369L1.19983 0.823048C0.675017 0.823048 0.31893 0.92724 0.131432 1.13534L0.0563937 1.23378C0.0189073 1.28861 0 1.37617 0 1.4967C0 1.61718 0.0374864 1.76504 0.112525 1.94011C0.862252 3.4843 1.67756 4.97355 2.55846 6.40808C3.43936 7.84261 4.20484 8.99817 4.85445 9.87371C5.50419 10.7499 6.16648 11.5768 6.8413 12.3541C7.51612 13.1316 7.9628 13.6299 8.18135 13.8488C8.40017 14.0682 8.57204 14.2321 8.69697 14.3416L9.16565 14.7358C9.46554 14.9986 9.90592 15.3135 10.487 15.6802C11.0682 16.0472 11.7116 16.4086 12.4176 16.7647C13.1238 17.1204 13.9453 17.4106 14.8826 17.635C15.8197 17.8597 16.7319 17.9498 17.6191 17.9063H19.7747C20.2119 17.8732 20.5431 17.7528 20.7682 17.5448L20.8428 17.4625C20.8929 17.3971 20.9399 17.2956 20.9832 17.159C21.027 17.0221 21.0488 16.8713 21.0488 16.7073C21.036 16.2365 21.0769 15.8122 21.1704 15.4344C21.2638 15.0568 21.3703 14.772 21.4894 14.5803C21.6084 14.3887 21.7428 14.227 21.8922 14.096C22.0421 13.9646 22.1488 13.885 22.2114 13.8576C22.2737 13.8301 22.3234 13.8114 22.3609 13.8002C22.6607 13.7126 23.0137 13.7974 23.4202 14.055C23.8264 14.3123 24.2073 14.6301 24.5637 15.0077C24.9198 15.3857 25.3477 15.8098 25.8475 16.2806C26.3475 16.7516 26.7848 17.1017 27.1595 17.332L27.5342 17.5291C27.7845 17.6606 28.1094 17.7811 28.5093 17.8906C28.9086 18 29.2583 18.0274 29.5587 17.9727L34.3569 17.9071C34.8315 17.9071 35.2008 17.8382 35.4627 17.7016C35.7252 17.5647 35.8811 17.4139 35.9314 17.2499C35.9815 17.0857 35.9842 16.8994 35.9409 16.6911C35.8965 16.4833 35.8527 16.3381 35.8091 16.256Z"/>
</mask>
<path d="M35.8091 16.256C35.7655 16.1736 35.7248 16.1054 35.6871 16.0506C35.0625 15.0648 33.8689 13.8548 32.107 12.4202L32.0698 12.3873L32.0512 12.3712L32.0323 12.3547H32.0134C31.2138 11.6867 30.7074 11.2375 30.4954 11.0076C30.1074 10.5695 30.0205 10.1261 30.2325 9.67683C30.3823 9.33738 30.9451 8.62052 31.9195 7.52526C32.432 6.94481 32.8379 6.47959 33.1377 6.1291C35.2996 3.6103 36.2369 2.00075 35.9494 1.29983L35.8377 1.13603C35.7627 1.03742 35.569 0.947204 35.257 0.864932C34.9442 0.782832 34.5445 0.769255 34.057 0.823969L28.659 0.856647C28.5715 0.829492 28.4466 0.832023 28.284 0.864932C28.1215 0.897841 28.0402 0.914353 28.0402 0.914353L27.9463 0.955489L27.8717 1.00491C27.8092 1.03759 27.7404 1.09507 27.6654 1.17722C27.5908 1.25909 27.5283 1.35517 27.4784 1.46466C26.8907 2.7897 26.2225 4.02166 25.4726 5.16047C25.0102 5.83954 24.5856 6.42804 24.1978 6.92634C23.8105 7.42446 23.4856 7.79147 23.2234 8.02672C22.9608 8.2622 22.7238 8.45085 22.511 8.59336C22.2985 8.73593 22.1363 8.79617 22.0239 8.77413C21.9113 8.7521 21.8053 8.73023 21.7049 8.70837C21.5301 8.60976 21.3895 8.47565 21.2835 8.30593C21.177 8.1362 21.1053 7.92258 21.0678 7.66524C21.0305 7.40772 21.0085 7.18622 21.0022 6.99998C20.9963 6.81398 20.999 6.55088 21.0117 6.21143C21.0247 5.87181 21.0305 5.64203 21.0305 5.52155C21.0305 5.10536 21.0398 4.65366 21.0584 4.16636C21.0773 3.67905 21.0926 3.29295 21.1054 3.0085C21.1181 2.72377 21.124 2.42253 21.124 2.10494C21.124 1.78736 21.1019 1.5383 21.0584 1.35753C21.0153 1.17699 20.9492 1.00175 20.8621 0.83185C20.7744 0.662128 20.6461 0.530837 20.4778 0.437633C20.3091 0.344545 20.0995 0.270672 19.8499 0.215785C19.1876 0.084437 18.3442 0.0133836 17.3193 0.00233722C14.9952 -0.0195254 13.5019 0.111995 12.8396 0.396727C12.5772 0.517029 12.3397 0.681401 12.1274 0.889326C11.9024 1.13033 11.871 1.26185 12.0335 1.28349C12.7833 1.38193 13.3142 1.61741 13.6266 1.98971L13.7392 2.18699C13.8268 2.32932 13.9142 2.58132 14.0017 2.94263C14.0891 3.30394 14.1455 3.70362 14.1703 4.14145C14.2327 4.94098 14.2327 5.6254 14.1703 6.19475C14.1077 6.76433 14.0487 7.20773 13.9923 7.52532C13.9359 7.8429 13.8516 8.10025 13.7392 8.2973C13.6266 8.49441 13.5517 8.61488 13.5141 8.65861C13.4766 8.70233 13.4454 8.72989 13.4206 8.74071C13.2582 8.79525 13.0892 8.82304 12.9144 8.82304C12.7393 8.82304 12.527 8.74629 12.2771 8.5929C12.0273 8.43952 11.7681 8.22883 11.4994 7.9605C11.2307 7.69211 10.9276 7.31705 10.5901 6.83526C10.2529 6.35348 9.90297 5.78408 9.54058 5.12705L9.24075 4.65056C9.05332 4.34402 8.79728 3.89768 8.47238 3.31193C8.14728 2.72596 7.85993 2.15914 7.61013 1.6116C7.51027 1.38164 7.36026 1.20656 7.16036 1.08609L7.06654 1.03667C7.00418 0.992943 6.90406 0.946514 6.76672 0.897035C6.62918 0.847614 6.48567 0.812174 6.33559 0.790369L1.19983 0.823048C0.675017 0.823048 0.31893 0.92724 0.131432 1.13534L0.0563937 1.23378C0.0189073 1.28861 0 1.37617 0 1.4967C0 1.61718 0.0374864 1.76504 0.112525 1.94011C0.862252 3.4843 1.67756 4.97355 2.55846 6.40808C3.43936 7.84261 4.20484 8.99817 4.85445 9.87371C5.50419 10.7499 6.16648 11.5768 6.8413 12.3541C7.51612 13.1316 7.9628 13.6299 8.18135 13.8488C8.40017 14.0682 8.57204 14.2321 8.69697 14.3416L9.16565 14.7358C9.46554 14.9986 9.90592 15.3135 10.487 15.6802C11.0682 16.0472 11.7116 16.4086 12.4176 16.7647C13.1238 17.1204 13.9453 17.4106 14.8826 17.635C15.8197 17.8597 16.7319 17.9498 17.6191 17.9063H19.7747C20.2119 17.8732 20.5431 17.7528 20.7682 17.5448L20.8428 17.4625C20.8929 17.3971 20.9399 17.2956 20.9832 17.159C21.027 17.0221 21.0488 16.8713 21.0488 16.7073C21.036 16.2365 21.0769 15.8122 21.1704 15.4344C21.2638 15.0568 21.3703 14.772 21.4894 14.5803C21.6084 14.3887 21.7428 14.227 21.8922 14.096C22.0421 13.9646 22.1488 13.885 22.2114 13.8576C22.2737 13.8301 22.3234 13.8114 22.3609 13.8002C22.6607 13.7126 23.0137 13.7974 23.4202 14.055C23.8264 14.3123 24.2073 14.6301 24.5637 15.0077C24.9198 15.3857 25.3477 15.8098 25.8475 16.2806C26.3475 16.7516 26.7848 17.1017 27.1595 17.332L27.5342 17.5291C27.7845 17.6606 28.1094 17.7811 28.5093 17.8906C28.9086 18 29.2583 18.0274 29.5587 17.9727L34.3569 17.9071C34.8315 17.9071 35.2008 17.8382 35.4627 17.7016C35.7252 17.5647 35.8811 17.4139 35.9314 17.2499C35.9815 17.0857 35.9842 16.8994 35.9409 16.6911C35.8965 16.4833 35.8527 16.3381 35.8091 16.256Z" fill="white" stroke="#143958" stroke-width="2" mask="url(#path-1-inside-1_599_43)"/>
</svg>
